<?xml version="1.0" encoding="utf-8" ?>
<svg baseProfile="full" height="220" version="1.1" width="600" xmlns="http://www.w3.org/2000/svg" xmlns:ev="http://www.w3.org/2001/xml-events" xmlns:xlink="http://www.w3.org/1999/xlink"><defs /><line stroke="black" stroke-width="2" x1="50" x2="550" y1="180" y2="180" /><line stroke="black" stroke-width="2" x1="50" x2="50" y1="50" y2="180" /><text font-size="14" text-anchor="end" x="45" y="85.0">D</text><text font-size="14" text-anchor="end" x="45" y="145.0">CLK</text><path d="M 50 60 L 50 60 L 100 60 L 100 110 L 180 110 L 180 60 L 257 60 L 257 110 L 315 110 L 315 60 L 345 60 L 345 110 L 412 110 L 412 60 L 437 60 L 437 110 L 502 110" fill="none" stroke="black" stroke-width="2" /><path d="M 50 120 L 50 120 L 150 120 L 150 170 L 250 170 L 250 120 L 350 120 L 350 170 L 450 170 L 450 120 L 550 120" fill="none" stroke="black" stroke-width="2" /><line stroke="black" stroke-dasharray="4" stroke-width="2" x1="480" x2="480" y1="50" y2="180" /><line stroke="black" stroke-dasharray="4" stroke-width="2" x1="276" x2="276" y1="50" y2="180" /><line stroke="black" stroke-dasharray="4" stroke-width="2" x1="326" x2="326" y1="50" y2="180" /><text font-size="18" text-anchor="middle" x="276" y="45">T0</text><text font-size="18" text-anchor="middle" x="326" y="45">T1</text><text font-size="18" text-anchor="middle" x="480" y="45">T2</text></svg>