<?xml version="1.0" encoding="utf-8" ?>
<svg baseProfile="full" height="340" version="1.1" width="600" xmlns="http://www.w3.org/2000/svg" xmlns:ev="http://www.w3.org/2001/xml-events" xmlns:xlink="http://www.w3.org/1999/xlink"><defs /><line stroke="black" stroke-width="2" x1="50" x2="550" y1="290" y2="290" /><line stroke="black" stroke-width="2" x1="50" x2="50" y1="50" y2="290" /><text font-size="14" text-anchor="end" x="45" y="75.0">D</text><text font-size="14" text-anchor="end" x="45" y="135.0">CLK</text><path d="M 50 110 L 50 110 L 116 110 L 116 160 L 160 160 L 160 110 L 235 110 L 235 160 L 287 160 L 287 110 L 335 110 L 335 160 L 367 160 L 367 110 L 435 110 L 435 160 L 502 160" fill="none" stroke="black" stroke-width="2" /><path d="M 50 170 L 50 170 L 150 170 L 150 220 L 250 220 L 250 170 L 350 170 L 350 220 L 450 220 L 450 170 L 550 170" fill="none" stroke="black" stroke-width="2" /><text font-size="14" text-anchor="middle" x="300.0" y="50">Draw the signal waveform for Q and ★</text></svg>