<?xml version="1.0" encoding="utf-8" ?>
<svg baseProfile="full" height="400" version="1.1" width="450" xmlns="http://www.w3.org/2000/svg" xmlns:ev="http://www.w3.org/2001/xml-events" xmlns:xlink="http://www.w3.org/1999/xlink"><defs /><text font-size="14" text-anchor="middle" x="225.0" y="30">Complete the State Transition Diagram</text><text font-size="14" text-anchor="middle" x="225.0" y="60">Combination Lock with Password 0010</text><circle cx="35.0" cy="140" fill="none" r="30" stroke="black" stroke-width="2" /><circle cx="125.0" cy="140" fill="none" r="30" stroke="black" stroke-width="2" /><circle cx="215.0" cy="140" fill="none" r="30" stroke="black" stroke-width="2" /><circle cx="305.0" cy="140" fill="none" r="30" stroke="black" stroke-width="2" /><circle cx="395.0" cy="140" fill="none" r="30" stroke="black" stroke-width="2" /><rect fill="none" height="240" stroke="black" width="240" x="105.0" y="230" /><text font-size="14" text-anchor="middle" x="120.0" y="230">IN</text><line stroke="black" stroke-width="1" x1="135.0" x2="135.0" y1="230" y2="470" /><text font-size="14" text-anchor="middle" x="150.0" y="230">S[2]</text><line stroke="black" stroke-width="1" x1="165.0" x2="165.0" y1="230" y2="470" /><text font-size="14" text-anchor="middle" x="180.0" y="230">S[1]</text><line stroke="black" stroke-width="1" x1="195.0" x2="195.0" y1="230" y2="470" /><text font-size="14" text-anchor="middle" x="210.0" y="230">S[0]</text><line stroke="black" stroke-width="2" x1="225.0" x2="225.0" y1="230" y2="470" /><text font-size="14" text-anchor="middle" x="240.0" y="230">OUT</text><line stroke="black" stroke-width="1" x1="255.0" x2="255.0" y1="230" y2="470" /><text font-size="14" text-anchor="middle" x="270.0" y="230">S'[2]</text><line stroke="black" stroke-width="1" x1="285.0" x2="285.0" y1="230" y2="470" /><text font-size="14" text-anchor="middle" x="300.0" y="230">S'[1]</text><line stroke="black" stroke-width="1" x1="315.0" x2="315.0" y1="230" y2="470" /><text font-size="14" text-anchor="middle" x="330.0" y="230">S'[0]</text><line stroke="black" stroke-width="1" x1="345.0" x2="345.0" y1="230" y2="470" /><line stroke="black" stroke-width="1" x1="105.0" x2="345.0" y1="230" y2="230" /><line stroke="black" stroke-width="1" x1="105.0" x2="345.0" y1="245" y2="245" /><line stroke="black" stroke-width="1" x1="105.0" x2="345.0" y1="260" y2="260" /><line stroke="black" stroke-width="1" x1="105.0" x2="345.0" y1="275" y2="275" /><line stroke="black" stroke-width="1" x1="105.0" x2="345.0" y1="290" y2="290" /><line stroke="black" stroke-width="1" x1="105.0" x2="345.0" y1="305" y2="305" /><line stroke="black" stroke-width="1" x1="105.0" x2="345.0" y1="320" y2="320" /><line stroke="black" stroke-width="1" x1="105.0" x2="345.0" y1="335" y2="335" /><line stroke="black" stroke-width="1" x1="105.0" x2="345.0" y1="350" y2="350" /><line stroke="black" stroke-width="1" x1="105.0" x2="345.0" y1="365" y2="365" /><line stroke="black" stroke-width="1" x1="105.0" x2="345.0" y1="380" y2="380" /><line stroke="black" stroke-width="1" x1="105.0" x2="345.0" y1="395" y2="395" /><line stroke="black" stroke-width="1" x1="105.0" x2="345.0" y1="410" y2="410" /><line stroke="black" stroke-width="1" x1="105.0" x2="345.0" y1="425" y2="425" /><line stroke="black" stroke-width="1" x1="105.0" x2="345.0" y1="440" y2="440" /><line stroke="black" stroke-width="1" x1="105.0" x2="345.0" y1="455" y2="455" /></svg>