<?xml version="1.0" encoding="utf-8" ?>
<svg baseProfile="full" height="600" version="1.1" width="850" xmlns="http://www.w3.org/2000/svg" xmlns:ev="http://www.w3.org/2001/xml-events" xmlns:xlink="http://www.w3.org/1999/xlink"><defs /><text font-size="14" text-anchor="middle" transform="translate(120,170)" x="60" y="22">G0</text><line stroke="black" stroke-width="2" transform="translate(120,170)" x1="45" x2="55" y1="20" y2="20" /><path d="M 7.6700216 44.5 L 9.6700216 46.9375 C 9.6700216 46.9375 15.326272 53.937549 15.326272 64.5 C 15.326272 75.062451 9.6700216 82.0625 9.6700216 82.0625 L 7.6700216 84.5 L 10.826272 84.5 L 24.826272 84.5 C 27.234348 84.500001 32.515971 84.524514 38.451272 82.09375 C 43.952029 79.840951 50.024779 75.456504 54.984922 67.238862 L 53.826272 64.5 L 54.987161 61.767184 C 44.664037 44.700133 29.409159 44.5 24.826272 44.5 L 10.826272 44.5 L 7.6700216 44.5 z M 13.545022 47.5 L 24.826272 47.5 C 29.510445 47.5 43.113122 47.369793 52.795022 64.5 C 48.028236 72.929075 42.273741 77.18391 37.076272 79.3125 C 31.715611 81.507924 27.234347 81.500001 24.826272 81.5 L 13.576272 81.5 C 15.44986 78.391566 18.326272 72.45065 18.326272 64.5 C 18.326272 56.526646 15.41774 50.599815 13.545022 47.5 z" transform="translate(-10,-45) translate(120,170)" /><path d="M 24.25 42.0 C 22.65263 44.6444 22.0 45.0 22.0 45.0 h -3.65625 l 2.0 -2.4375 S 26.0 35.56245 26.0 25.0 20.34375 7.4375 20.34375 7.4375 l -2.0 -2.4375 H 22.0 c 0.78125 0.9375 1.42188 1.65625 2.21875 3.0 C 26.09147 11.09981 29.0 17.02665 29.0 25.0 c 0.0 7.95065 -2.8967 13.87942 -4.75 17.0 z" transform="translate(-30,-5) translate(240,230)" /><path d="M 24.09375 5.0 l 2.0 2.4375 S 31.75 14.43755 31.75 25.0 s -5.65625 17.5625 -5.65625 17.5625 l -2.0 2.4375 H 41.25 c 2.40808 0.0 7.6897 0.02451 13.625 -2.40625 s 12.53654 -7.34327 17.6875 -16.875 L 71.25 25.0 l 1.3125 -0.71875 C 62.25939 5.21559 46.00657 5.0 41.25 5.0 H 24.09375 z m 5.875 3.0 H 41.25 c 4.68417 0.0 18.28685 -0.1302 27.96875 17.0 C 64.45196 33.42907 58.69747 37.68391 53.5 39.8125 48.13934 42.00792 43.65808 42.0 41.25 42.0 H 30.0 c 1.87359 -3.10843 4.75 -9.04935 4.75 -17.0 0.0 -7.97335 -2.90853 -13.90019 -4.78125 -17.0 z" transform="translate(-30,-5) translate(240,230)" /><text font-size="14" text-anchor="middle" transform="translate(240,230)" x="55" y="22">G1</text><line stroke="black" stroke-width="2" transform="translate(240,230)" x1="40" x2="50" y1="20" y2="20" /><path d="M 30.0 5.0 V 45.0 H 50.47619 c 11.267908 0.0 20.0 -9.000045 20.0 -20.0 s -8.732091 -20.0 -20.0 -20.0 H 30.0 z m 2.857143 2.857143 H 50.47619 c 9.760663 0.0 16.666667 7.639955 16.666667 17.142857 0.0 9.502902 -7.382195 17.142857 -17.142857 17.142857 H 32.857143 V 7.857143 z" transform="translate(-30,-5) translate(360,170)" /><circle cx="42" cy="20" fill="none" r="3" stroke="black" stroke-width="3" transform="translate(360,170)" /><text font-size="14" text-anchor="middle" transform="translate(360,170)" x="60" y="22">G2</text><line stroke="black" stroke-width="2" transform="translate(360,170)" x1="45" x2="55" y1="20" y2="20" /><circle cx="48" cy="20" fill="none" r="3" stroke="black" stroke-width="3" transform="translate(480,50)" /><text font-size="14" text-anchor="middle" transform="translate(480,50)" x="65" y="22">G3</text><line stroke="black" stroke-width="2" transform="translate(480,50)" x1="50" x2="60" y1="20" y2="20" /><path d="M 7.6700216 44.5 L 9.6700216 46.9375 C 9.6700216 46.9375 15.326272 53.937549 15.326272 64.5 C 15.326272 75.062451 9.6700216 82.0625 9.6700216 82.0625 L 7.6700216 84.5 L 10.826272 84.5 L 24.826272 84.5 C 27.234348 84.500001 32.515971 84.524514 38.451272 82.09375 C 43.952029 79.840951 50.024779 75.456504 54.984922 67.238862 L 53.826272 64.5 L 54.987161 61.767184 C 44.664037 44.700133 29.409159 44.5 24.826272 44.5 L 10.826272 44.5 L 7.6700216 44.5 z M 13.545022 47.5 L 24.826272 47.5 C 29.510445 47.5 43.113122 47.369793 52.795022 64.5 C 48.028236 72.929075 42.273741 77.18391 37.076272 79.3125 C 31.715611 81.507924 27.234347 81.500001 24.826272 81.5 L 13.576272 81.5 C 15.44986 78.391566 18.326272 72.45065 18.326272 64.5 C 18.326272 56.526646 15.41774 50.599815 13.545022 47.5 z" transform="translate(-10,-45) translate(480,50)" /><circle cx="48" cy="20" fill="none" r="3" stroke="black" stroke-width="3" transform="translate(600,110)" /><text font-size="14" text-anchor="middle" transform="translate(600,110)" x="65" y="22">G4</text><line stroke="black" stroke-width="2" transform="translate(600,110)" x1="50" x2="60" y1="20" y2="20" /><path d="M 7.6700216 44.5 L 9.6700216 46.9375 C 9.6700216 46.9375 15.326272 53.937549 15.326272 64.5 C 15.326272 75.062451 9.6700216 82.0625 9.6700216 82.0625 L 7.6700216 84.5 L 10.826272 84.5 L 24.826272 84.5 C 27.234348 84.500001 32.515971 84.524514 38.451272 82.09375 C 43.952029 79.840951 50.024779 75.456504 54.984922 67.238862 L 53.826272 64.5 L 54.987161 61.767184 C 44.664037 44.700133 29.409159 44.5 24.826272 44.5 L 10.826272 44.5 L 7.6700216 44.5 z M 13.545022 47.5 L 24.826272 47.5 C 29.510445 47.5 43.113122 47.369793 52.795022 64.5 C 48.028236 72.929075 42.273741 77.18391 37.076272 79.3125 C 31.715611 81.507924 27.234347 81.500001 24.826272 81.5 L 13.576272 81.5 C 15.44986 78.391566 18.326272 72.45065 18.326272 64.5 C 18.326272 56.526646 15.41774 50.599815 13.545022 47.5 z" transform="translate(-10,-45) translate(600,110)" /><path d="M 24.25 42.0 C 22.65263 44.6444 22.0 45.0 22.0 45.0 h -3.65625 l 2.0 -2.4375 S 26.0 35.56245 26.0 25.0 20.34375 7.4375 20.34375 7.4375 l -2.0 -2.4375 H 22.0 c 0.78125 0.9375 1.42188 1.65625 2.21875 3.0 C 26.09147 11.09981 29.0 17.02665 29.0 25.0 c 0.0 7.95065 -2.8967 13.87942 -4.75 17.0 z" transform="translate(-30,-5) translate(720,50)" /><path d="M 24.09375 5.0 l 2.0 2.4375 S 31.75 14.43755 31.75 25.0 s -5.65625 17.5625 -5.65625 17.5625 l -2.0 2.4375 H 41.25 c 2.40808 0.0 7.6897 0.02451 13.625 -2.40625 s 12.53654 -7.34327 17.6875 -16.875 L 71.25 25.0 l 1.3125 -0.71875 C 62.25939 5.21559 46.00657 5.0 41.25 5.0 H 24.09375 z m 5.875 3.0 H 41.25 c 4.68417 0.0 18.28685 -0.1302 27.96875 17.0 C 64.45196 33.42907 58.69747 37.68391 53.5 39.8125 48.13934 42.00792 43.65808 42.0 41.25 42.0 H 30.0 c 1.87359 -3.10843 4.75 -9.04935 4.75 -17.0 0.0 -7.97335 -2.90853 -13.90019 -4.78125 -17.0 z" transform="translate(-30,-5) translate(720,50)" /><text font-size="14" text-anchor="middle" transform="translate(720,50)" x="55" y="22">G5</text><line stroke="black" stroke-width="2" transform="translate(720,50)" x1="40" x2="50" y1="20" y2="20" /><line stroke="black" stroke-width="2" x1="170" x2="205.0" y1="190" y2="190" /><line stroke="black" stroke-width="2" x1="205.0" x2="205.0" y1="190" y2="240" /><line stroke="black" stroke-width="2" x1="205.0" x2="240" y1="240" y2="240" /><circle cx="205.0" cy="190" fill="black" r="3" /><line stroke="black" stroke-width="2" x1="170" x2="265.0" y1="190" y2="190" /><line stroke="black" stroke-width="2" x1="265.0" x2="265.0" y1="190" y2="180" /><line stroke="black" stroke-width="2" x1="265.0" x2="360" y1="180" y2="180" /><line stroke="black" stroke-width="2" x1="290" x2="325.0" y1="250" y2="250" /><line stroke="black" stroke-width="2" x1="325.0" x2="325.0" y1="250" y2="200" /><line stroke="black" stroke-width="2" x1="325.0" x2="360" y1="200" y2="200" /><circle cx="325.0" cy="250" fill="black" r="3" /><line stroke="black" stroke-width="2" x1="290" x2="385.0" y1="250" y2="250" /><line stroke="black" stroke-width="2" x1="385.0" x2="385.0" y1="250" y2="60" /><line stroke="black" stroke-width="2" x1="385.0" x2="480" y1="60" y2="60" /><line stroke="black" stroke-width="2" x1="410" x2="445.0" y1="190" y2="190" /><line stroke="black" stroke-width="2" x1="445.0" x2="445.0" y1="190" y2="80" /><line stroke="black" stroke-width="2" x1="445.0" x2="480" y1="80" y2="80" /><circle cx="445.0" cy="190" fill="black" r="3" /><line stroke="black" stroke-width="2" x1="410" x2="505.0" y1="190" y2="190" /><line stroke="black" stroke-width="2" x1="505.0" x2="505.0" y1="190" y2="120" /><line stroke="black" stroke-width="2" x1="505.0" x2="600" y1="120" y2="120" /><line stroke="black" stroke-width="2" x1="530" x2="565.0" y1="70" y2="70" /><line stroke="black" stroke-width="2" x1="565.0" x2="565.0" y1="70" y2="140" /><line stroke="black" stroke-width="2" x1="565.0" x2="600" y1="140" y2="140" /><circle cx="565.0" cy="70" fill="black" r="3" /><line stroke="black" stroke-width="2" x1="530" x2="625.0" y1="70" y2="70" /><line stroke="black" stroke-width="2" x1="625.0" x2="625.0" y1="70" y2="60" /><line stroke="black" stroke-width="2" x1="625.0" x2="720" y1="60" y2="60" /><line stroke="black" stroke-width="2" x1="650" x2="685.0" y1="130" y2="130" /><line stroke="black" stroke-width="2" x1="685.0" x2="685.0" y1="130" y2="80" /><line stroke="black" stroke-width="2" x1="685.0" x2="720" y1="80" y2="80" /><text font-size="14" text-anchor="middle" x="20" y="185">A</text><line stroke="black" stroke-width="2" x1="50" x2="85.0" y1="180" y2="180" /><line stroke="black" stroke-width="2" x1="85.0" x2="85.0" y1="180" y2="180" /><line stroke="black" stroke-width="2" x1="85.0" x2="120" y1="180" y2="180" /><text font-size="14" text-anchor="middle" x="20" y="205">B</text><line stroke="black" stroke-width="2" x1="50" x2="85.0" y1="200" y2="200" /><line stroke="black" stroke-width="2" x1="85.0" x2="85.0" y1="200" y2="200" /><line stroke="black" stroke-width="2" x1="85.0" x2="120" y1="200" y2="200" /><text font-size="14" text-anchor="middle" x="20" y="265">C</text><line stroke="black" stroke-width="2" x1="50" x2="145.0" y1="260" y2="260" /><line stroke="black" stroke-width="2" x1="145.0" x2="145.0" y1="260" y2="260" /><line stroke="black" stroke-width="2" x1="145.0" x2="240" y1="260" y2="260" /><rect fill="none" height="180" stroke="black" width="150" x="350.0" y="300" /><text font-size="14" text-anchor="middle" x="375.0" y="300">Gate</text><line stroke="black" stroke-width="1" x1="400.0" x2="400.0" y1="300" y2="480" /><text font-size="14" text-anchor="middle" x="425.0" y="300">Tpd</text><line stroke="black" stroke-width="1" x1="450.0" x2="450.0" y1="300" y2="480" /><text font-size="14" text-anchor="middle" x="475.0" y="300">Tcd</text><line stroke="black" stroke-width="2" x1="500.0" x2="500.0" y1="300" y2="480" /><line stroke="black" stroke-width="1" x1="350.0" x2="500.0" y1="300" y2="300" /><line stroke="black" stroke-width="1" x1="350.0" x2="500.0" y1="330" y2="330" /><line stroke="black" stroke-width="1" x1="350.0" x2="500.0" y1="360" y2="360" /><line stroke="black" stroke-width="1" x1="350.0" x2="500.0" y1="390" y2="390" /><line stroke="black" stroke-width="1" x1="350.0" x2="500.0" y1="420" y2="420" /><line stroke="black" stroke-width="1" x1="350.0" x2="500.0" y1="450" y2="450" /><text font-size="14" text-anchor="middle" x="375.0" y="315.0">and</text><text font-size="14" text-anchor="middle" x="425.0" y="315.0">33</text><text font-size="14" text-anchor="middle" x="475.0" y="315.0">3</text><text font-size="14" text-anchor="middle" x="375.0" y="345.0">or</text><text font-size="14" text-anchor="middle" x="425.0" y="345.0">40</text><text font-size="14" text-anchor="middle" x="475.0" y="345.0">20</text><text font-size="14" text-anchor="middle" x="375.0" y="375.0">xor</text><text font-size="14" text-anchor="middle" x="425.0" y="375.0">36</text><text font-size="14" text-anchor="middle" x="475.0" y="375.0">11</text><text font-size="14" text-anchor="middle" x="375.0" y="405.0">nand</text><text font-size="14" text-anchor="middle" x="425.0" y="405.0">33</text><text font-size="14" text-anchor="middle" x="475.0" y="405.0">2</text><text font-size="14" text-anchor="middle" x="375.0" y="435.0">nor</text><text font-size="14" text-anchor="middle" x="425.0" y="435.0">23</text><text font-size="14" text-anchor="middle" x="475.0" y="435.0">20</text><text font-size="14" text-anchor="middle" x="375.0" y="465.0">notxor</text><text font-size="14" text-anchor="middle" x="425.0" y="465.0">21</text><text font-size="14" text-anchor="middle" x="475.0" y="465.0">18</text><text font-size="14" text-anchor="middle" x="425.0" y="500">What is the Tpd and Tcd of the above circuit?</text></svg>