<?xml version="1.0" encoding="utf-8" ?>
<svg baseProfile="full" height="200" version="1.1" width="600" xmlns="http://www.w3.org/2000/svg" xmlns:ev="http://www.w3.org/2001/xml-events" xmlns:xlink="http://www.w3.org/1999/xlink"><defs /><rect fill="none" height="120" stroke="black" width="100" x="20" y="20" /><text font-size="14" text-anchor="middle" x="30.0" y="20">Cin</text><line stroke="black" stroke-width="1" x1="40" x2="40" y1="20" y2="140" /><text font-size="14" text-anchor="middle" x="50.0" y="20">A</text><line stroke="black" stroke-width="1" x1="60" x2="60" y1="20" y2="140" /><text font-size="14" text-anchor="middle" x="70.0" y="20">B</text><line stroke="black" stroke-width="2" x1="80" x2="80" y1="20" y2="140" /><text font-size="14" text-anchor="middle" x="90.0" y="20">S</text><line stroke="black" stroke-width="1" x1="100" x2="100" y1="20" y2="140" /><text font-size="14" text-anchor="middle" x="110.0" y="20">Cout</text><line stroke="black" stroke-width="1" x1="120" x2="120" y1="20" y2="140" /><line stroke="black" stroke-width="1" x1="20" x2="120" y1="20" y2="20" /><line stroke="black" stroke-width="1" x1="20" x2="120" y1="35" y2="35" /><line stroke="black" stroke-width="1" x1="20" x2="120" y1="50" y2="50" /><line stroke="black" stroke-width="1" x1="20" x2="120" y1="65" y2="65" /><line stroke="black" stroke-width="1" x1="20" x2="120" y1="80" y2="80" /><line stroke="black" stroke-width="1" x1="20" x2="120" y1="95" y2="95" /><line stroke="black" stroke-width="1" x1="20" x2="120" y1="110" y2="110" /><line stroke="black" stroke-width="1" x1="20" x2="120" y1="125" y2="125" /><text font-size="10" text-anchor="start" x="150" y="20">Write a SOP expression(s) for the truth table.</text><text font-size="10" text-anchor="start" x="150" y="80">Draw a circuit that encodes the SOP expression.</text></svg>