<?xml version="1.0" encoding="utf-8" ?>
<svg baseProfile="full" height="300" version="1.1" width="650" xmlns="http://www.w3.org/2000/svg" xmlns:ev="http://www.w3.org/2001/xml-events" xmlns:xlink="http://www.w3.org/1999/xlink"><defs /><rect fill="none" height="140" stroke="black" stroke-width="2" width="140" x="40" y="80" /><text font-size="14" text-anchor="start" x="45" y="100">RA1</text><line stroke="black" stroke-width="2" x1="30" x2="40" y1="100" y2="100" /><text font-size="14" text-anchor="start" x="45" y="122.0">RA2</text><line stroke="black" stroke-width="2" x1="30" x2="40" y1="122.0" y2="122.0" /><text font-size="14" text-anchor="start" x="45" y="144.0">WA</text><line stroke="black" stroke-width="2" x1="30" x2="40" y1="144.0" y2="144.0" /><text font-size="14" text-anchor="start" x="45" y="166.0">WE</text><line stroke="black" stroke-width="2" x1="30" x2="40" y1="166.0" y2="166.0" /><text font-size="14" text-anchor="start" x="45" y="188.0">WD</text><line stroke="black" stroke-width="2" x1="30" x2="40" y1="188.0" y2="188.0" /><text font-size="14" text-anchor="start" x="45" y="210.0">&gt;</text><line stroke="black" stroke-width="2" x1="30" x2="40" y1="210.0" y2="210.0" /><text font-size="14" text-anchor="end" x="175" y="100">RD1</text><line stroke="black" stroke-width="2" x1="180" x2="190" y1="100" y2="100" /><text font-size="14" text-anchor="end" x="175" y="210.0">RD2</text><line stroke="black" stroke-width="2" x1="180" x2="190" y1="210.0" y2="210.0" /><text font-size="14" text-anchor="middle" x="110.0" y="150.0">Register File</text><text font-size="14" text-anchor="start" x="240" y="80">What signals should be set to set R4 = -3?</text><text font-size="14" text-anchor="middle" x="240" y="120">RA1</text><rect fill="none" height="30" stroke="black" stroke-width="2" width="60" x="254" y="105" /><text font-size="14" text-anchor="middle" x="340" y="120">RA2</text><rect fill="none" height="30" stroke="black" stroke-width="2" width="60" x="354" y="105" /><text font-size="14" text-anchor="middle" x="440" y="120">WA</text><rect fill="none" height="30" stroke="black" stroke-width="2" width="60" x="454" y="105" /><text font-size="14" text-anchor="middle" x="540" y="120">WE</text><rect fill="none" height="30" stroke="black" stroke-width="2" width="60" x="554" y="105" /><text font-size="14" text-anchor="start" x="240" y="160">What signals should be set to read R31 and R13?</text><text font-size="14" text-anchor="middle" x="240" y="200">RA1</text><rect fill="none" height="30" stroke="black" stroke-width="2" width="60" x="254" y="185" /><text font-size="14" text-anchor="middle" x="340" y="200">RA2</text><rect fill="none" height="30" stroke="black" stroke-width="2" width="60" x="354" y="185" /><text font-size="14" text-anchor="middle" x="440" y="200">WA</text><rect fill="none" height="30" stroke="black" stroke-width="2" width="60" x="454" y="185" /><text font-size="14" text-anchor="middle" x="540" y="200">WE</text><rect fill="none" height="30" stroke="black" stroke-width="2" width="60" x="554" y="185" /></svg>