<?xml version="1.0" encoding="utf-8" ?>
<svg baseProfile="full" height="750" version="1.1" width="650" xmlns="http://www.w3.org/2000/svg" xmlns:ev="http://www.w3.org/2001/xml-events" xmlns:xlink="http://www.w3.org/1999/xlink"><defs /><rect fill="none" height="30" stroke="black" stroke-width="2" width="100" x="40" y="40" /><text font-size="14" text-anchor="start" x="45" y="60">IN</text><line stroke="black" stroke-width="2" x1="30" x2="40" y1="60" y2="60" /><text font-size="14" text-anchor="start" x="45" y="60.0">&gt;</text><line stroke="black" stroke-width="2" x1="30" x2="40" y1="60.0" y2="60.0" /><text font-size="14" text-anchor="end" x="135" y="60">OUT</text><line stroke="black" stroke-width="2" x1="140" x2="150" y1="60" y2="60" /><text font-size="14" text-anchor="middle" x="90.0" y="55.0">PC</text><rect fill="none" height="30" stroke="black" stroke-width="2" width="30" x="40" y="90" /><text font-size="14" text-anchor="start" x="45" y="110" /><line stroke="black" stroke-width="2" x1="30" x2="40" y1="110" y2="110" /><text font-size="14" text-anchor="end" x="65" y="110" /><line stroke="black" stroke-width="2" x1="70" x2="80" y1="110" y2="110" /><text font-size="14" text-anchor="middle" x="55.0" y="105.0">+4</text><rect fill="none" height="100" stroke="black" stroke-width="2" width="100" x="180" y="40" /><text font-size="14" text-anchor="start" x="185" y="60">A</text><line stroke="black" stroke-width="2" x1="170" x2="180" y1="60" y2="60" /><text font-size="14" text-anchor="end" x="275" y="60">D</text><line stroke="black" stroke-width="2" x1="280" x2="290" y1="60" y2="60" /><text font-size="14" text-anchor="middle" x="230.0" y="90.0">Inst. Memory</text><rect fill="none" height="100" stroke="black" stroke-width="2" width="200" x="360" y="40" /><text font-size="14" text-anchor="start" x="365" y="60">OPCODE</text><line stroke="black" stroke-width="2" x1="350" x2="360" y1="60" y2="60" /><text font-size="14" text-anchor="end" x="555" y="60">ALUFN</text><line stroke="black" stroke-width="2" x1="560" x2="570" y1="60" y2="60" /><text font-size="14" text-anchor="end" x="555" y="130.0">WERF</text><line stroke="black" stroke-width="2" x1="560" x2="570" y1="130.0" y2="130.0" /><text font-size="14" text-anchor="middle" x="460.0" y="90.0">Control Logic</text><rect fill="none" height="140" stroke="black" stroke-width="2" width="140" x="320" y="270" /><text font-size="14" text-anchor="start" x="325" y="290">RA1</text><line stroke="black" stroke-width="2" x1="310" x2="320" y1="290" y2="290" /><text font-size="14" text-anchor="start" x="325" y="312.0">RA2</text><line stroke="black" stroke-width="2" x1="310" x2="320" y1="312.0" y2="312.0" /><text font-size="14" text-anchor="start" x="325" y="334.0">WA</text><line stroke="black" stroke-width="2" x1="310" x2="320" y1="334.0" y2="334.0" /><text font-size="14" text-anchor="start" x="325" y="356.0">WE</text><line stroke="black" stroke-width="2" x1="310" x2="320" y1="356.0" y2="356.0" /><text font-size="14" text-anchor="start" x="325" y="378.0">WD</text><line stroke="black" stroke-width="2" x1="310" x2="320" y1="378.0" y2="378.0" /><text font-size="14" text-anchor="start" x="325" y="400.0">&gt;</text><line stroke="black" stroke-width="2" x1="310" x2="320" y1="400.0" y2="400.0" /><text font-size="14" text-anchor="end" x="455" y="290">RD1</text><line stroke="black" stroke-width="2" x1="460" x2="470" y1="290" y2="290" /><text font-size="14" text-anchor="end" x="455" y="400.0">RD2</text><line stroke="black" stroke-width="2" x1="460" x2="470" y1="400.0" y2="400.0" /><text font-size="14" text-anchor="middle" x="390.0" y="340.0">Register File</text><rect fill="none" height="100" stroke="black" stroke-width="2" width="100" x="260" y="460" /><text font-size="14" text-anchor="start" x="265" y="480">A</text><line stroke="black" stroke-width="2" x1="250" x2="260" y1="480" y2="480" /><text font-size="14" text-anchor="start" x="265" y="515.0">B</text><line stroke="black" stroke-width="2" x1="250" x2="260" y1="515.0" y2="515.0" /><text font-size="14" text-anchor="start" x="265" y="550.0">ALUFN</text><line stroke="black" stroke-width="2" x1="250" x2="260" y1="550.0" y2="550.0" /><text font-size="14" text-anchor="end" x="355" y="480">D</text><line stroke="black" stroke-width="2" x1="360" x2="370" y1="480" y2="480" /><text font-size="14" text-anchor="middle" x="310.0" y="510.0">ALU</text><rect fill="none" height="100" stroke="black" stroke-width="2" width="100" x="260" y="600" /><text font-size="14" text-anchor="start" x="265" y="620">WD</text><line stroke="black" stroke-width="2" x1="250" x2="260" y1="620" y2="620" /><text font-size="14" text-anchor="start" x="265" y="655.0">A</text><line stroke="black" stroke-width="2" x1="250" x2="260" y1="655.0" y2="655.0" /><text font-size="14" text-anchor="start" x="265" y="690.0">R/W</text><line stroke="black" stroke-width="2" x1="250" x2="260" y1="690.0" y2="690.0" /><text font-size="14" text-anchor="end" x="355" y="620">RD</text><line stroke="black" stroke-width="2" x1="360" x2="370" y1="620" y2="620" /><text font-size="14" text-anchor="middle" x="310.0" y="650.0">Data Memory</text><rect fill="none" height="15" stroke="black" stroke-width="2" width="15" x="40" y="180" /><rect fill="none" height="15" stroke="black" stroke-width="2" width="15" x="55" y="180" /><rect fill="none" height="15" stroke="black" stroke-width="2" width="15" x="70" y="180" /><rect fill="none" height="15" stroke="black" stroke-width="2" width="15" x="85" y="180" /><rect fill="none" height="15" stroke="black" stroke-width="2" width="15" x="100" y="180" /><rect fill="none" height="15" stroke="black" stroke-width="2" width="15" x="115" y="180" /><rect fill="none" height="15" stroke="black" stroke-width="2" width="15" x="130" y="180" /><rect fill="none" height="15" stroke="black" stroke-width="2" width="15" x="145" y="180" /><rect fill="none" height="15" stroke="black" stroke-width="2" width="15" x="160" y="180" /><rect fill="none" height="15" stroke="black" stroke-width="2" width="15" x="175" y="180" /><rect fill="none" height="15" stroke="black" stroke-width="2" width="15" x="190" y="180" /><rect fill="none" height="15" stroke="black" stroke-width="2" width="15" x="205" y="180" /><rect fill="none" height="15" stroke="black" stroke-width="2" width="15" x="220" y="180" /><rect fill="none" height="15" stroke="black" stroke-width="2" width="15" x="235" y="180" /><rect fill="none" height="15" stroke="black" stroke-width="2" width="15" x="250" y="180" /><rect fill="none" height="15" stroke="black" stroke-width="2" width="15" x="265" y="180" /><rect fill="none" height="15" stroke="black" stroke-width="2" width="15" x="280" y="180" /><rect fill="none" height="15" stroke="black" stroke-width="2" width="15" x="295" y="180" /><rect fill="none" height="15" stroke="black" stroke-width="2" width="15" x="310" y="180" /><rect fill="none" height="15" stroke="black" stroke-width="2" width="15" x="325" y="180" /><rect fill="none" height="15" stroke="black" stroke-width="2" width="15" x="340" y="180" /><rect fill="none" height="15" stroke="black" stroke-width="2" width="15" x="355" y="180" /><rect fill="none" height="15" stroke="black" stroke-width="2" width="15" x="370" y="180" /><rect fill="none" height="15" stroke="black" stroke-width="2" width="15" x="385" y="180" /><rect fill="none" height="15" stroke="black" stroke-width="2" width="15" x="400" y="180" /><rect fill="none" height="15" stroke="black" stroke-width="2" width="15" x="415" y="180" /><rect fill="none" height="15" stroke="black" stroke-width="2" width="15" x="430" y="180" /><rect fill="none" height="15" stroke="black" stroke-width="2" width="15" x="445" y="180" /><rect fill="none" height="15" stroke="black" stroke-width="2" width="15" x="460" y="180" /><rect fill="none" height="15" stroke="black" stroke-width="2" width="15" x="475" y="180" /><rect fill="none" height="15" stroke="black" stroke-width="2" width="15" x="490" y="180" /><rect fill="none" height="15" stroke="black" stroke-width="2" width="15" x="505" y="180" /></svg>