<?xml version="1.0" encoding="utf-8" ?>
<svg baseProfile="full" height="240" version="1.1" width="600" xmlns="http://www.w3.org/2000/svg" xmlns:ev="http://www.w3.org/2001/xml-events" xmlns:xlink="http://www.w3.org/1999/xlink"><defs /><path d="M 30.0 5.0 V 45.0 H 50.47619 c 11.267908 0.0 20.0 -9.000045 20.0 -20.0 s -8.732091 -20.0 -20.0 -20.0 H 30.0 z m 2.857143 2.857143 H 50.47619 c 9.760663 0.0 16.666667 7.639955 16.666667 17.142857 0.0 9.502902 -7.382195 17.142857 -17.142857 17.142857 H 32.857143 V 7.857143 z" transform="translate(-30,-5) translate(20,20)" /><text font-size="14" text-anchor="middle" transform="translate(20,20)" x="-15" y="10">x</text><line stroke="black" stroke-width="2" transform="translate(20,20)" x1="-10" x2="0" y1="10" y2="10" /><text font-size="14" text-anchor="middle" transform="translate(20,20)" x="-15" y="30">y</text><line stroke="black" stroke-width="2" transform="translate(20,20)" x1="-10" x2="0" y1="30" y2="30" /><text font-size="14" text-anchor="middle" transform="translate(20,20)" x="55" y="22">z</text><line stroke="black" stroke-width="2" transform="translate(20,20)" x1="40" x2="50" y1="20" y2="20" /><rect fill="none" height="60" stroke="black" width="60" x="100" y="20" /><text font-size="14" text-anchor="middle" x="110.0" y="20">x</text><line stroke="black" stroke-width="1" x1="120" x2="120" y1="20" y2="80" /><text font-size="14" text-anchor="middle" x="130.0" y="20">y</text><line stroke="black" stroke-width="2" x1="140" x2="140" y1="20" y2="80" /><text font-size="14" text-anchor="middle" x="150.0" y="20">z</text><line stroke="black" stroke-width="1" x1="160" x2="160" y1="20" y2="80" /><line stroke="black" stroke-width="1" x1="100" x2="160" y1="20" y2="20" /><line stroke="black" stroke-width="1" x1="100" x2="160" y1="35" y2="35" /><line stroke="black" stroke-width="1" x1="100" x2="160" y1="50" y2="50" /><line stroke="black" stroke-width="1" x1="100" x2="160" y1="65" y2="65" /><text font-size="14" text-anchor="middle" transform="translate(220,20)" x="-10" y="10">x</text><line stroke="black" stroke-width="2" transform="translate(220,20)" x1="-5" x2="5" y1="10" y2="10" /><text font-size="14" text-anchor="middle" transform="translate(220,20)" x="-10" y="30">y</text><line stroke="black" stroke-width="2" transform="translate(220,20)" x1="-5" x2="5" y1="30" y2="30" /><text font-size="14" text-anchor="middle" transform="translate(220,20)" x="60" y="22">z</text><line stroke="black" stroke-width="2" transform="translate(220,20)" x1="45" x2="55" y1="20" y2="20" /><path d="M 7.6700216 44.5 L 9.6700216 46.9375 C 9.6700216 46.9375 15.326272 53.937549 15.326272 64.5 C 15.326272 75.062451 9.6700216 82.0625 9.6700216 82.0625 L 7.6700216 84.5 L 10.826272 84.5 L 24.826272 84.5 C 27.234348 84.500001 32.515971 84.524514 38.451272 82.09375 C 43.952029 79.840951 50.024779 75.456504 54.984922 67.238862 L 53.826272 64.5 L 54.987161 61.767184 C 44.664037 44.700133 29.409159 44.5 24.826272 44.5 L 10.826272 44.5 L 7.6700216 44.5 z M 13.545022 47.5 L 24.826272 47.5 C 29.510445 47.5 43.113122 47.369793 52.795022 64.5 C 48.028236 72.929075 42.273741 77.18391 37.076272 79.3125 C 31.715611 81.507924 27.234347 81.500001 24.826272 81.5 L 13.576272 81.5 C 15.44986 78.391566 18.326272 72.45065 18.326272 64.5 C 18.326272 56.526646 15.41774 50.599815 13.545022 47.5 z" transform="translate(-10,-45) translate(220,20)" /><rect fill="none" height="60" stroke="black" width="60" x="300" y="20" /><text font-size="14" text-anchor="middle" x="310.0" y="20">x</text><line stroke="black" stroke-width="1" x1="320" x2="320" y1="20" y2="80" /><text font-size="14" text-anchor="middle" x="330.0" y="20">y</text><line stroke="black" stroke-width="2" x1="340" x2="340" y1="20" y2="80" /><text font-size="14" text-anchor="middle" x="350.0" y="20">z</text><line stroke="black" stroke-width="1" x1="360" x2="360" y1="20" y2="80" /><line stroke="black" stroke-width="1" x1="300" x2="360" y1="20" y2="20" /><line stroke="black" stroke-width="1" x1="300" x2="360" y1="35" y2="35" /><line stroke="black" stroke-width="1" x1="300" x2="360" y1="50" y2="50" /><line stroke="black" stroke-width="1" x1="300" x2="360" y1="65" y2="65" /><path d="M 24.25 42.0 C 22.65263 44.6444 22.0 45.0 22.0 45.0 h -3.65625 l 2.0 -2.4375 S 26.0 35.56245 26.0 25.0 20.34375 7.4375 20.34375 7.4375 l -2.0 -2.4375 H 22.0 c 0.78125 0.9375 1.42188 1.65625 2.21875 3.0 C 26.09147 11.09981 29.0 17.02665 29.0 25.0 c 0.0 7.95065 -2.8967 13.87942 -4.75 17.0 z" transform="translate(-30,-5) translate(420,20)" /><path d="M 24.09375 5.0 l 2.0 2.4375 S 31.75 14.43755 31.75 25.0 s -5.65625 17.5625 -5.65625 17.5625 l -2.0 2.4375 H 41.25 c 2.40808 0.0 7.6897 0.02451 13.625 -2.40625 s 12.53654 -7.34327 17.6875 -16.875 L 71.25 25.0 l 1.3125 -0.71875 C 62.25939 5.21559 46.00657 5.0 41.25 5.0 H 24.09375 z m 5.875 3.0 H 41.25 c 4.68417 0.0 18.28685 -0.1302 27.96875 17.0 C 64.45196 33.42907 58.69747 37.68391 53.5 39.8125 48.13934 42.00792 43.65808 42.0 41.25 42.0 H 30.0 c 1.87359 -3.10843 4.75 -9.04935 4.75 -17.0 0.0 -7.97335 -2.90853 -13.90019 -4.78125 -17.0 z" transform="translate(-30,-5) translate(420,20)" /><text font-size="14" text-anchor="middle" transform="translate(420,20)" x="-20" y="10">x</text><line stroke="black" stroke-width="2" transform="translate(420,20)" x1="-15" x2="-5" y1="10" y2="10" /><text font-size="14" text-anchor="middle" transform="translate(420,20)" x="-20" y="30">y</text><line stroke="black" stroke-width="2" transform="translate(420,20)" x1="-15" x2="-5" y1="30" y2="30" /><text font-size="14" text-anchor="middle" transform="translate(420,20)" x="55" y="22">z</text><line stroke="black" stroke-width="2" transform="translate(420,20)" x1="40" x2="50" y1="20" y2="20" /><rect fill="none" height="60" stroke="black" width="60" x="500" y="20" /><text font-size="14" text-anchor="middle" x="510.0" y="20">x</text><line stroke="black" stroke-width="1" x1="520" x2="520" y1="20" y2="80" /><text font-size="14" text-anchor="middle" x="530.0" y="20">y</text><line stroke="black" stroke-width="2" x1="540" x2="540" y1="20" y2="80" /><text font-size="14" text-anchor="middle" x="550.0" y="20">z</text><line stroke="black" stroke-width="1" x1="560" x2="560" y1="20" y2="80" /><line stroke="black" stroke-width="1" x1="500" x2="560" y1="20" y2="20" /><line stroke="black" stroke-width="1" x1="500" x2="560" y1="35" y2="35" /><line stroke="black" stroke-width="1" x1="500" x2="560" y1="50" y2="50" /><line stroke="black" stroke-width="1" x1="500" x2="560" y1="65" y2="65" /><path d="M 30.0 5.0 V 45.0 H 50.47619 c 11.267908 0.0 20.0 -9.000045 20.0 -20.0 s -8.732091 -20.0 -20.0 -20.0 H 30.0 z m 2.857143 2.857143 H 50.47619 c 9.760663 0.0 16.666667 7.639955 16.666667 17.142857 0.0 9.502902 -7.382195 17.142857 -17.142857 17.142857 H 32.857143 V 7.857143 z" transform="translate(-30,-5) translate(20,100)" /><circle cx="42" cy="20" fill="none" r="3" stroke="black" stroke-width="3" transform="translate(20,100)" /><text font-size="14" text-anchor="middle" transform="translate(20,100)" x="-15" y="10">x</text><line stroke="black" stroke-width="2" transform="translate(20,100)" x1="-10" x2="0" y1="10" y2="10" /><text font-size="14" text-anchor="middle" transform="translate(20,100)" x="-15" y="30">y</text><line stroke="black" stroke-width="2" transform="translate(20,100)" x1="-10" x2="0" y1="30" y2="30" /><text font-size="14" text-anchor="middle" transform="translate(20,100)" x="60" y="22">z</text><line stroke="black" stroke-width="2" transform="translate(20,100)" x1="45" x2="55" y1="20" y2="20" /><rect fill="none" height="60" stroke="black" width="60" x="100" y="100" /><text font-size="14" text-anchor="middle" x="110.0" y="100">x</text><line stroke="black" stroke-width="1" x1="120" x2="120" y1="100" y2="160" /><text font-size="14" text-anchor="middle" x="130.0" y="100">y</text><line stroke="black" stroke-width="2" x1="140" x2="140" y1="100" y2="160" /><text font-size="14" text-anchor="middle" x="150.0" y="100">z</text><line stroke="black" stroke-width="1" x1="160" x2="160" y1="100" y2="160" /><line stroke="black" stroke-width="1" x1="100" x2="160" y1="100" y2="100" /><line stroke="black" stroke-width="1" x1="100" x2="160" y1="115" y2="115" /><line stroke="black" stroke-width="1" x1="100" x2="160" y1="130" y2="130" /><line stroke="black" stroke-width="1" x1="100" x2="160" y1="145" y2="145" /><circle cx="48" cy="20" fill="none" r="3" stroke="black" stroke-width="3" transform="translate(220,100)" /><text font-size="14" text-anchor="middle" transform="translate(220,100)" x="-10" y="10">x</text><line stroke="black" stroke-width="2" transform="translate(220,100)" x1="-5" x2="5" y1="10" y2="10" /><text font-size="14" text-anchor="middle" transform="translate(220,100)" x="-10" y="30">y</text><line stroke="black" stroke-width="2" transform="translate(220,100)" x1="-5" x2="5" y1="30" y2="30" /><text font-size="14" text-anchor="middle" transform="translate(220,100)" x="65" y="22">z</text><line stroke="black" stroke-width="2" transform="translate(220,100)" x1="50" x2="60" y1="20" y2="20" /><path d="M 7.6700216 44.5 L 9.6700216 46.9375 C 9.6700216 46.9375 15.326272 53.937549 15.326272 64.5 C 15.326272 75.062451 9.6700216 82.0625 9.6700216 82.0625 L 7.6700216 84.5 L 10.826272 84.5 L 24.826272 84.5 C 27.234348 84.500001 32.515971 84.524514 38.451272 82.09375 C 43.952029 79.840951 50.024779 75.456504 54.984922 67.238862 L 53.826272 64.5 L 54.987161 61.767184 C 44.664037 44.700133 29.409159 44.5 24.826272 44.5 L 10.826272 44.5 L 7.6700216 44.5 z M 13.545022 47.5 L 24.826272 47.5 C 29.510445 47.5 43.113122 47.369793 52.795022 64.5 C 48.028236 72.929075 42.273741 77.18391 37.076272 79.3125 C 31.715611 81.507924 27.234347 81.500001 24.826272 81.5 L 13.576272 81.5 C 15.44986 78.391566 18.326272 72.45065 18.326272 64.5 C 18.326272 56.526646 15.41774 50.599815 13.545022 47.5 z" transform="translate(-10,-45) translate(220,100)" /><rect fill="none" height="60" stroke="black" width="60" x="300" y="100" /><text font-size="14" text-anchor="middle" x="310.0" y="100">x</text><line stroke="black" stroke-width="1" x1="320" x2="320" y1="100" y2="160" /><text font-size="14" text-anchor="middle" x="330.0" y="100">y</text><line stroke="black" stroke-width="2" x1="340" x2="340" y1="100" y2="160" /><text font-size="14" text-anchor="middle" x="350.0" y="100">z</text><line stroke="black" stroke-width="1" x1="360" x2="360" y1="100" y2="160" /><line stroke="black" stroke-width="1" x1="300" x2="360" y1="100" y2="100" /><line stroke="black" stroke-width="1" x1="300" x2="360" y1="115" y2="115" /><line stroke="black" stroke-width="1" x1="300" x2="360" y1="130" y2="130" /><line stroke="black" stroke-width="1" x1="300" x2="360" y1="145" y2="145" /><path d="M 24.25 42.0 C 22.65263 44.6444 22.0 45.0 22.0 45.0 h -3.65625 l 2.0 -2.4375 S 26.0 35.56245 26.0 25.0 20.34375 7.4375 20.34375 7.4375 l -2.0 -2.4375 H 22.0 c 0.78125 0.9375 1.42188 1.65625 2.21875 3.0 C 26.09147 11.09981 29.0 17.02665 29.0 25.0 c 0.0 7.95065 -2.8967 13.87942 -4.75 17.0 z" transform="translate(-30,-5) translate(420,100)" /><path d="M 24.09375 5.0 l 2.0 2.4375 S 31.75 14.43755 31.75 25.0 s -5.65625 17.5625 -5.65625 17.5625 l -2.0 2.4375 H 41.25 c 2.40808 0.0 7.6897 0.02451 13.625 -2.40625 s 12.53654 -7.34327 17.6875 -16.875 L 71.25 25.0 l 1.3125 -0.71875 C 62.25939 5.21559 46.00657 5.0 41.25 5.0 H 24.09375 z m 5.875 3.0 H 41.25 c 4.68417 0.0 18.28685 -0.1302 27.96875 17.0 C 64.45196 33.42907 58.69747 37.68391 53.5 39.8125 48.13934 42.00792 43.65808 42.0 41.25 42.0 H 30.0 c 1.87359 -3.10843 4.75 -9.04935 4.75 -17.0 0.0 -7.97335 -2.90853 -13.90019 -4.78125 -17.0 z" transform="translate(-30,-5) translate(420,100)" /><circle cx="42" cy="20" fill="none" r="3" stroke="black" stroke-width="3" transform="translate(420,100)" /><text font-size="14" text-anchor="middle" transform="translate(420,100)" x="-20" y="10">x</text><line stroke="black" stroke-width="2" transform="translate(420,100)" x1="-15" x2="-5" y1="10" y2="10" /><text font-size="14" text-anchor="middle" transform="translate(420,100)" x="-20" y="30">y</text><line stroke="black" stroke-width="2" transform="translate(420,100)" x1="-15" x2="-5" y1="30" y2="30" /><text font-size="14" text-anchor="middle" transform="translate(420,100)" x="60" y="22">z</text><line stroke="black" stroke-width="2" transform="translate(420,100)" x1="45" x2="55" y1="20" y2="20" /><rect fill="none" height="60" stroke="black" width="60" x="500" y="100" /><text font-size="14" text-anchor="middle" x="510.0" y="100">x</text><line stroke="black" stroke-width="1" x1="520" x2="520" y1="100" y2="160" /><text font-size="14" text-anchor="middle" x="530.0" y="100">y</text><line stroke="black" stroke-width="2" x1="540" x2="540" y1="100" y2="160" /><text font-size="14" text-anchor="middle" x="550.0" y="100">z</text><line stroke="black" stroke-width="1" x1="560" x2="560" y1="100" y2="160" /><line stroke="black" stroke-width="1" x1="500" x2="560" y1="100" y2="100" /><line stroke="black" stroke-width="1" x1="500" x2="560" y1="115" y2="115" /><line stroke="black" stroke-width="1" x1="500" x2="560" y1="130" y2="130" /><line stroke="black" stroke-width="1" x1="500" x2="560" y1="145" y2="145" /><path d="M 38.0 2.59375 L 38.0 5.0 L 38.0 45.0 L 38.0 47.40625 L 40.109024 46.34375 L 79.184573 26.87052 L 78.840667 22.958095 L 40.109024 3.65625 L 38.0 2.59375 z M 41.109024 7.40625 L 76.268082 25.0 L 41.109024 42.59375 L 41.109024 7.40625 z" transform="translate(-40,-5) translate(220,180)" /><circle cx="40" cy="20" fill="none" r="3" stroke="black" stroke-width="3" transform="translate(220,180)" /><rect fill="none" height="30" stroke="black" width="40" x="300" y="180" /><text font-size="14" text-anchor="middle" x="310.0" y="180">x</text><line stroke="black" stroke-width="2" x1="320" x2="320" y1="180" y2="210" /><text font-size="14" text-anchor="middle" x="330.0" y="180">z</text><line stroke="black" stroke-width="1" x1="340" x2="340" y1="180" y2="210" /><line stroke="black" stroke-width="1" x1="300" x2="340" y1="180" y2="180" /><line stroke="black" stroke-width="1" x1="300" x2="340" y1="195" y2="195" /></svg>