<?xml version="1.0" encoding="utf-8" ?>
<svg baseProfile="full" height="700" version="1.1" width="400" xmlns="http://www.w3.org/2000/svg" xmlns:ev="http://www.w3.org/2001/xml-events" xmlns:xlink="http://www.w3.org/1999/xlink"><defs /><rect fill="none" height="240" stroke="black" width="120" x="140.0" y="20" /><text font-size="14" text-anchor="middle" x="155.0" y="20">A</text><line stroke="black" stroke-width="1" x1="170.0" x2="170.0" y1="20" y2="260" /><text font-size="14" text-anchor="middle" x="185.0" y="20">B</text><line stroke="black" stroke-width="1" x1="200.0" x2="200.0" y1="20" y2="260" /><text font-size="14" text-anchor="middle" x="215.0" y="20">C</text><line stroke="black" stroke-width="2" x1="230.0" x2="230.0" y1="20" y2="260" /><text font-size="14" text-anchor="middle" x="245.0" y="20">X</text><line stroke="black" stroke-width="1" x1="260.0" x2="260.0" y1="20" y2="260" /><line stroke="black" stroke-width="1" x1="140.0" x2="260.0" y1="20" y2="20" /><line stroke="black" stroke-width="1" x1="140.0" x2="260.0" y1="50" y2="50" /><line stroke="black" stroke-width="1" x1="140.0" x2="260.0" y1="80" y2="80" /><line stroke="black" stroke-width="1" x1="140.0" x2="260.0" y1="110" y2="110" /><line stroke="black" stroke-width="1" x1="140.0" x2="260.0" y1="140" y2="140" /><line stroke="black" stroke-width="1" x1="140.0" x2="260.0" y1="170" y2="170" /><line stroke="black" stroke-width="1" x1="140.0" x2="260.0" y1="200" y2="200" /><line stroke="black" stroke-width="1" x1="140.0" x2="260.0" y1="230" y2="230" /><text font-size="14" text-anchor="middle" x="155.0" y="35.0">0</text><text font-size="14" text-anchor="middle" x="185.0" y="35.0">0</text><text font-size="14" text-anchor="middle" x="215.0" y="35.0">0</text><text font-size="14" text-anchor="middle" x="155.0" y="65.0">0</text><text font-size="14" text-anchor="middle" x="185.0" y="65.0">0</text><text font-size="14" text-anchor="middle" x="215.0" y="65.0">1</text><text font-size="14" text-anchor="middle" x="155.0" y="95.0">0</text><text font-size="14" text-anchor="middle" x="185.0" y="95.0">1</text><text font-size="14" text-anchor="middle" x="215.0" y="95.0">0</text><text font-size="14" text-anchor="middle" x="155.0" y="125.0">0</text><text font-size="14" text-anchor="middle" x="185.0" y="125.0">1</text><text font-size="14" text-anchor="middle" x="215.0" y="125.0">1</text><text font-size="14" text-anchor="middle" x="155.0" y="155.0">1</text><text font-size="14" text-anchor="middle" x="185.0" y="155.0">0</text><text font-size="14" text-anchor="middle" x="215.0" y="155.0">0</text><text font-size="14" text-anchor="middle" x="155.0" y="185.0">1</text><text font-size="14" text-anchor="middle" x="185.0" y="185.0">0</text><text font-size="14" text-anchor="middle" x="215.0" y="185.0">1</text><text font-size="14" text-anchor="middle" x="155.0" y="215.0">1</text><text font-size="14" text-anchor="middle" x="185.0" y="215.0">1</text><text font-size="14" text-anchor="middle" x="215.0" y="215.0">0</text><text font-size="14" text-anchor="middle" x="155.0" y="245.0">1</text><text font-size="14" text-anchor="middle" x="185.0" y="245.0">1</text><text font-size="14" text-anchor="middle" x="215.0" y="245.0">1</text><text font-size="14" text-anchor="middle" x="245.0" y="35.0">1</text><text font-size="14" text-anchor="middle" x="245.0" y="65.0">0</text><text font-size="14" text-anchor="middle" x="245.0" y="95.0">1</text><text font-size="14" text-anchor="middle" x="245.0" y="125.0">0</text><text font-size="14" text-anchor="middle" x="245.0" y="155.0">1</text><text font-size="14" text-anchor="middle" x="245.0" y="185.0">0</text><text font-size="14" text-anchor="middle" x="245.0" y="215.0">1</text><text font-size="14" text-anchor="middle" x="245.0" y="245.0">0</text><text font-size="10" text-anchor="middle" x="200.0" y="280">Write a SOP expression for the above truth table.</text><text font-size="10" text-anchor="middle" x="200.0" y="480">Draw a circuit that encodes the above SOP expression.</text></svg>