<?xml version="1.0" encoding="utf-8" ?>
<svg baseProfile="full" height="580" version="1.1" width="400" xmlns="http://www.w3.org/2000/svg" xmlns:ev="http://www.w3.org/2001/xml-events" xmlns:xlink="http://www.w3.org/1999/xlink"><defs /><rect fill="none" height="120" stroke="black" width="90" x="155.0" y="20" /><text font-size="14" text-anchor="middle" x="170.0" y="20">A</text><line stroke="black" stroke-width="1" x1="185.0" x2="185.0" y1="20" y2="140" /><text font-size="14" text-anchor="middle" x="200.0" y="20">B</text><line stroke="black" stroke-width="2" x1="215.0" x2="215.0" y1="20" y2="140" /><text font-size="14" text-anchor="middle" x="230.0" y="20">X</text><line stroke="black" stroke-width="1" x1="245.0" x2="245.0" y1="20" y2="140" /><line stroke="black" stroke-width="1" x1="155.0" x2="245.0" y1="20" y2="20" /><line stroke="black" stroke-width="1" x1="155.0" x2="245.0" y1="50" y2="50" /><line stroke="black" stroke-width="1" x1="155.0" x2="245.0" y1="80" y2="80" /><line stroke="black" stroke-width="1" x1="155.0" x2="245.0" y1="110" y2="110" /><text font-size="14" text-anchor="middle" x="170.0" y="35.0">0</text><text font-size="14" text-anchor="middle" x="200.0" y="35.0">0</text><text font-size="14" text-anchor="middle" x="170.0" y="65.0">0</text><text font-size="14" text-anchor="middle" x="200.0" y="65.0">1</text><text font-size="14" text-anchor="middle" x="170.0" y="95.0">1</text><text font-size="14" text-anchor="middle" x="200.0" y="95.0">0</text><text font-size="14" text-anchor="middle" x="170.0" y="125.0">1</text><text font-size="14" text-anchor="middle" x="200.0" y="125.0">1</text><text font-size="14" text-anchor="middle" x="230.0" y="35.0">1</text><text font-size="14" text-anchor="middle" x="230.0" y="65.0">1</text><text font-size="14" text-anchor="middle" x="230.0" y="95.0">0</text><text font-size="14" text-anchor="middle" x="230.0" y="125.0">0</text><text font-size="10" text-anchor="middle" x="200.0" y="160">Write a SOP expression for the above truth table.</text><text font-size="10" text-anchor="middle" x="200.0" y="360">Draw a circuit that encodes the above SOP expression.</text></svg>