<?xml version="1.0" encoding="utf-8" ?>
<svg baseProfile="full" height="400" version="1.1" width="600" xmlns="http://www.w3.org/2000/svg" xmlns:ev="http://www.w3.org/2001/xml-events" xmlns:xlink="http://www.w3.org/1999/xlink"><defs /><path d="m 28.0 81.0 0.0 -95.0 32.5 17.5 0.0 60.0 -32.5 17.5 z" fill="none" stroke="black" stroke-width="2" transform="translate(-50,25) translate(60,20)" /><text font-size="14" text-anchor="middle" transform="translate(60,20)" x="-10" y="125">S</text><line stroke="black" stroke-width="2" transform="translate(60,20)" x1="-5" x2="-5" y1="95" y2="110" /><text font-size="14" text-anchor="middle" transform="translate(60,20)" x="-35" y="30">A</text><line stroke="black" stroke-width="2" transform="translate(60,20)" x1="-20" x2="-30" y1="30" y2="30" /><text font-size="14" text-anchor="middle" transform="translate(60,20)" x="-35" y="90.0">B</text><line stroke="black" stroke-width="2" transform="translate(60,20)" x1="-20" x2="-30" y1="90.0" y2="90.0" /><text font-size="14" text-anchor="middle" transform="translate(60,20)" x="30" y="55">Y</text><line stroke="black" stroke-width="2" transform="translate(60,20)" x1="10" x2="25" y1="55" y2="55" /><rect fill="none" height="120" stroke="black" width="80" x="150" y="20" /><text font-size="14" text-anchor="middle" x="160.0" y="20">A</text><line stroke="black" stroke-width="1" x1="170" x2="170" y1="20" y2="140" /><text font-size="14" text-anchor="middle" x="180.0" y="20">B</text><line stroke="black" stroke-width="1" x1="190" x2="190" y1="20" y2="140" /><text font-size="14" text-anchor="middle" x="200.0" y="20">S</text><line stroke="black" stroke-width="2" x1="210" x2="210" y1="20" y2="140" /><text font-size="14" text-anchor="middle" x="220.0" y="20">Y</text><line stroke="black" stroke-width="1" x1="230" x2="230" y1="20" y2="140" /><line stroke="black" stroke-width="1" x1="150" x2="230" y1="20" y2="20" /><line stroke="black" stroke-width="1" x1="150" x2="230" y1="35" y2="35" /><line stroke="black" stroke-width="1" x1="150" x2="230" y1="50" y2="50" /><line stroke="black" stroke-width="1" x1="150" x2="230" y1="65" y2="65" /><line stroke="black" stroke-width="1" x1="150" x2="230" y1="80" y2="80" /><line stroke="black" stroke-width="1" x1="150" x2="230" y1="95" y2="95" /><line stroke="black" stroke-width="1" x1="150" x2="230" y1="110" y2="110" /><line stroke="black" stroke-width="1" x1="150" x2="230" y1="125" y2="125" /><text font-size="10" text-anchor="start" x="250" y="20">Write a SOP expression(s) for the truth table.</text><text font-size="10" text-anchor="start" x="250" y="80">Draw a circuit that encodes the SOP expression.</text><path d="m 28.0 81.0 0.0 -95.0 32.5 17.5 0.0 60.0 -32.5 17.5 z" fill="none" stroke="black" stroke-width="2" transform="translate(-50,25) translate(60,180)" /><text font-size="14" text-anchor="middle" transform="translate(60,180)" x="-10" y="125">S</text><line stroke="black" stroke-width="2" transform="translate(60,180)" x1="-5" x2="-5" y1="95" y2="110" /><text font-size="14" text-anchor="middle" transform="translate(60,180)" x="-35" y="30">A</text><line stroke="black" stroke-width="2" transform="translate(60,180)" x1="-20" x2="-30" y1="30" y2="30" /><text font-size="14" text-anchor="middle" transform="translate(60,180)" x="-35" y="50.0">B</text><line stroke="black" stroke-width="2" transform="translate(60,180)" x1="-20" x2="-30" y1="50.0" y2="50.0" /><text font-size="14" text-anchor="middle" transform="translate(60,180)" x="-35" y="70.0">C</text><line stroke="black" stroke-width="2" transform="translate(60,180)" x1="-20" x2="-30" y1="70.0" y2="70.0" /><text font-size="14" text-anchor="middle" transform="translate(60,180)" x="-35" y="90.0">D</text><line stroke="black" stroke-width="2" transform="translate(60,180)" x1="-20" x2="-30" y1="90.0" y2="90.0" /><text font-size="14" text-anchor="middle" transform="translate(60,180)" x="30" y="55">Y</text><line stroke="black" stroke-width="2" transform="translate(60,180)" x1="10" x2="25" y1="55" y2="55" /><rect fill="none" height="60" stroke="black" width="60" x="150" y="210" /><text font-size="14" text-anchor="middle" x="160.0" y="210">S[1]</text><line stroke="black" stroke-width="1" x1="170" x2="170" y1="210" y2="270" /><text font-size="14" text-anchor="middle" x="180.0" y="210">S[0]</text><line stroke="black" stroke-width="2" x1="190" x2="190" y1="210" y2="270" /><text font-size="14" text-anchor="middle" x="200.0" y="210">Y</text><line stroke="black" stroke-width="1" x1="210" x2="210" y1="210" y2="270" /><line stroke="black" stroke-width="1" x1="150" x2="210" y1="210" y2="210" /><line stroke="black" stroke-width="1" x1="150" x2="210" y1="225" y2="225" /><line stroke="black" stroke-width="1" x1="150" x2="210" y1="240" y2="240" /><line stroke="black" stroke-width="1" x1="150" x2="210" y1="255" y2="255" /><text font-size="10" text-anchor="start" x="250" y="210">How many select bits do you need for an 17-input MUX?</text></svg>