<?xml version="1.0" encoding="utf-8" ?>
<svg baseProfile="full" height="400" version="1.1" width="600" xmlns="http://www.w3.org/2000/svg" xmlns:ev="http://www.w3.org/2001/xml-events" xmlns:xlink="http://www.w3.org/1999/xlink"><defs /><path d="M 60 20 L 70 30 L 70 90 L 60 100 z" fill="none" stroke="black" stroke-width="2" /><text font-size="14" text-anchor="middle" x="65" y="120">S</text><line stroke="black" stroke-width="2" x1="65" x2="65" y1="95" y2="110" /><text font-size="14" text-anchor="middle" x="45" y="40">A</text><text font-size="10" text-anchor="middle" x="65" y="40">0</text><line stroke="black" stroke-width="2" x1="60" x2="50" y1="40" y2="40" /><text font-size="14" text-anchor="middle" x="45" y="80.0">B</text><text font-size="10" text-anchor="middle" x="65" y="80.0">1</text><line stroke="black" stroke-width="2" x1="60" x2="50" y1="80.0" y2="80.0" /><text font-size="14" text-anchor="middle" x="87" y="65.0">Y</text><line stroke="black" stroke-width="2" x1="70" x2="80" y1="60.0" y2="60.0" /><rect fill="none" height="120" stroke="black" width="80" x="150" y="20" /><text font-size="14" text-anchor="middle" x="160.0" y="20">A</text><line stroke="black" stroke-width="1" x1="170" x2="170" y1="20" y2="140" /><text font-size="14" text-anchor="middle" x="180.0" y="20">B</text><line stroke="black" stroke-width="1" x1="190" x2="190" y1="20" y2="140" /><text font-size="14" text-anchor="middle" x="200.0" y="20">S</text><line stroke="black" stroke-width="2" x1="210" x2="210" y1="20" y2="140" /><text font-size="14" text-anchor="middle" x="220.0" y="20">Y</text><line stroke="black" stroke-width="1" x1="230" x2="230" y1="20" y2="140" /><line stroke="black" stroke-width="1" x1="150" x2="230" y1="20" y2="20" /><line stroke="black" stroke-width="1" x1="150" x2="230" y1="35" y2="35" /><line stroke="black" stroke-width="1" x1="150" x2="230" y1="50" y2="50" /><line stroke="black" stroke-width="1" x1="150" x2="230" y1="65" y2="65" /><line stroke="black" stroke-width="1" x1="150" x2="230" y1="80" y2="80" /><line stroke="black" stroke-width="1" x1="150" x2="230" y1="95" y2="95" /><line stroke="black" stroke-width="1" x1="150" x2="230" y1="110" y2="110" /><line stroke="black" stroke-width="1" x1="150" x2="230" y1="125" y2="125" /><text font-size="10" text-anchor="start" x="250" y="20">Write a SOP expression(s) for the truth table.</text><text font-size="10" text-anchor="start" x="250" y="80">Draw a circuit that encodes the SOP expression.</text><path d="M 60 180 L 70 190 L 70 270 L 60 280 z" fill="none" stroke="black" stroke-width="2" /><text font-size="14" text-anchor="middle" x="65" y="300">S[1:0]</text><line stroke="black" stroke-width="2" x1="65" x2="65" y1="275" y2="290" /><text font-size="14" text-anchor="middle" x="45" y="200">A</text><text font-size="10" text-anchor="middle" x="65" y="200">0</text><line stroke="black" stroke-width="2" x1="60" x2="50" y1="200" y2="200" /><text font-size="14" text-anchor="middle" x="45" y="220.0">B</text><text font-size="10" text-anchor="middle" x="65" y="220.0">1</text><line stroke="black" stroke-width="2" x1="60" x2="50" y1="220.0" y2="220.0" /><text font-size="14" text-anchor="middle" x="45" y="240.0">C</text><text font-size="10" text-anchor="middle" x="65" y="240.0">2</text><line stroke="black" stroke-width="2" x1="60" x2="50" y1="240.0" y2="240.0" /><text font-size="14" text-anchor="middle" x="45" y="260.0">D</text><text font-size="10" text-anchor="middle" x="65" y="260.0">3</text><line stroke="black" stroke-width="2" x1="60" x2="50" y1="260.0" y2="260.0" /><text font-size="14" text-anchor="middle" x="87" y="235.0">Y</text><line stroke="black" stroke-width="2" x1="70" x2="80" y1="230.0" y2="230.0" /><rect fill="none" height="60" stroke="black" width="60" x="150" y="210" /><text font-size="14" text-anchor="middle" x="160.0" y="210">S[1]</text><line stroke="black" stroke-width="1" x1="170" x2="170" y1="210" y2="270" /><text font-size="14" text-anchor="middle" x="180.0" y="210">S[0]</text><line stroke="black" stroke-width="2" x1="190" x2="190" y1="210" y2="270" /><text font-size="14" text-anchor="middle" x="200.0" y="210">Y</text><line stroke="black" stroke-width="1" x1="210" x2="210" y1="210" y2="270" /><line stroke="black" stroke-width="1" x1="150" x2="210" y1="210" y2="210" /><line stroke="black" stroke-width="1" x1="150" x2="210" y1="225" y2="225" /><line stroke="black" stroke-width="1" x1="150" x2="210" y1="240" y2="240" /><line stroke="black" stroke-width="1" x1="150" x2="210" y1="255" y2="255" /><text font-size="10" text-anchor="start" x="250" y="210">How many select bits do you need for an 12-input MUX?</text></svg>