<?xml version="1.0" encoding="utf-8" ?>
<svg baseProfile="full" height="340" version="1.1" width="600" xmlns="http://www.w3.org/2000/svg" xmlns:ev="http://www.w3.org/2001/xml-events" xmlns:xlink="http://www.w3.org/1999/xlink"><defs /><rect fill="none" height="80" stroke="black" width="60" x="40" y="180" /><text font-size="14" text-anchor="start" x="45" y="200">A</text><line stroke="black" stroke-width="2" x1="30" x2="40" y1="200" y2="200" /><text font-size="14" text-anchor="start" x="45" y="225.0">B</text><line stroke="black" stroke-width="2" x1="30" x2="40" y1="225.0" y2="225.0" /><text font-size="14" text-anchor="start" x="45" y="250.0">Cin</text><line stroke="black" stroke-width="2" x1="30" x2="40" y1="250.0" y2="250.0" /><text font-size="14" text-anchor="end" x="95" y="200">Cout</text><line stroke="black" stroke-width="2" x1="100" x2="110" y1="200" y2="200" /><text font-size="14" text-anchor="end" x="95" y="250.0">S</text><line stroke="black" stroke-width="2" x1="100" x2="110" y1="250.0" y2="250.0" /><text font-size="14" text-anchor="middle" x="70.0" y="220.0">FA</text><rect fill="none" height="80" stroke="black" width="60" x="160" y="180" /><text font-size="14" text-anchor="start" x="165" y="200">A</text><line stroke="black" stroke-width="2" x1="150" x2="160" y1="200" y2="200" /><text font-size="14" text-anchor="start" x="165" y="225.0">B</text><line stroke="black" stroke-width="2" x1="150" x2="160" y1="225.0" y2="225.0" /><text font-size="14" text-anchor="start" x="165" y="250.0">Cin</text><line stroke="black" stroke-width="2" x1="150" x2="160" y1="250.0" y2="250.0" /><text font-size="14" text-anchor="end" x="215" y="200">Cout</text><line stroke="black" stroke-width="2" x1="220" x2="230" y1="200" y2="200" /><text font-size="14" text-anchor="end" x="215" y="250.0">S</text><line stroke="black" stroke-width="2" x1="220" x2="230" y1="250.0" y2="250.0" /><text font-size="14" text-anchor="middle" x="190.0" y="220.0">FA</text><rect fill="none" height="30" stroke="black" width="30" x="340.0" y="300" /><text font-size="14" text-anchor="start" x="345.0" y="320" /><line stroke="black" stroke-width="2" x1="330.0" x2="340.0" y1="320" y2="320" /><text font-size="14" text-anchor="middle" x="355.0" y="315.0">S[0]</text><rect fill="none" height="30" stroke="black" width="30" x="400.0" y="300" /><text font-size="14" text-anchor="start" x="405.0" y="320" /><line stroke="black" stroke-width="2" x1="390.0" x2="400.0" y1="320" y2="320" /><text font-size="14" text-anchor="middle" x="415.0" y="315.0">S[1]</text><rect fill="none" height="30" stroke="black" width="30" x="460.0" y="300" /><text font-size="14" text-anchor="start" x="465.0" y="320" /><line stroke="black" stroke-width="2" x1="450.0" x2="460.0" y1="320" y2="320" /><text font-size="14" text-anchor="middle" x="475.0" y="315.0">S[2]</text><rect fill="none" height="30" stroke="black" width="30" x="520.0" y="300" /><text font-size="14" text-anchor="start" x="525.0" y="320" /><line stroke="black" stroke-width="2" x1="510.0" x2="520.0" y1="320" y2="320" /><text font-size="14" text-anchor="middle" x="535.0" y="315.0">S[3]</text><rect fill="none" height="30" stroke="black" width="30" x="120" y="80" /><text font-size="14" text-anchor="end" x="145" y="100" /><line stroke="black" stroke-width="2" x1="150" x2="160" y1="100" y2="100" /><text font-size="14" text-anchor="middle" x="135.0" y="95.0">A[0]</text><rect fill="none" height="30" stroke="black" width="30" x="210" y="80" /><text font-size="14" text-anchor="end" x="235" y="100" /><line stroke="black" stroke-width="2" x1="240" x2="250" y1="100" y2="100" /><text font-size="14" text-anchor="middle" x="225.0" y="95.0">A[1]</text><rect fill="none" height="30" stroke="black" width="30" x="300" y="80" /><text font-size="14" text-anchor="end" x="325" y="100" /><line stroke="black" stroke-width="2" x1="330" x2="340" y1="100" y2="100" /><text font-size="14" text-anchor="middle" x="315.0" y="95.0">A[2]</text><rect fill="none" height="30" stroke="black" width="30" x="390" y="80" /><text font-size="14" text-anchor="end" x="415" y="100" /><line stroke="black" stroke-width="2" x1="420" x2="430" y1="100" y2="100" /><text font-size="14" text-anchor="middle" x="405.0" y="95.0">A[3]</text><rect fill="none" height="30" stroke="black" width="30" x="120" y="120" /><text font-size="14" text-anchor="end" x="145" y="140" /><line stroke="black" stroke-width="2" x1="150" x2="160" y1="140" y2="140" /><text font-size="14" text-anchor="middle" x="135.0" y="135.0">B[0]</text><rect fill="none" height="30" stroke="black" width="30" x="210" y="120" /><text font-size="14" text-anchor="end" x="235" y="140" /><line stroke="black" stroke-width="2" x1="240" x2="250" y1="140" y2="140" /><text font-size="14" text-anchor="middle" x="225.0" y="135.0">B[1]</text><rect fill="none" height="30" stroke="black" width="30" x="300" y="120" /><text font-size="14" text-anchor="end" x="325" y="140" /><line stroke="black" stroke-width="2" x1="330" x2="340" y1="140" y2="140" /><text font-size="14" text-anchor="middle" x="315.0" y="135.0">B[2]</text><rect fill="none" height="30" stroke="black" width="30" x="390" y="120" /><text font-size="14" text-anchor="end" x="415" y="140" /><line stroke="black" stroke-width="2" x1="420" x2="430" y1="140" y2="140" /><text font-size="14" text-anchor="middle" x="405.0" y="135.0">B[3]</text><rect fill="none" height="30" stroke="black" width="30" x="40" y="100.0" /><text font-size="14" text-anchor="end" x="65" y="120.0" /><line stroke="black" stroke-width="2" x1="70" x2="80" y1="120.0" y2="120.0" /><text font-size="14" text-anchor="middle" x="55.0" y="115.0">Cin</text><text font-size="14" text-anchor="middle" x="300.0" y="40">Complete the 4-Bit Ripple Carry Adder by adding FA modules and wires</text></svg>