<?xml version="1.0" encoding="utf-8" ?>
<svg baseProfile="full" height="740" version="1.1" width="280" xmlns="http://www.w3.org/2000/svg" xmlns:ev="http://www.w3.org/2001/xml-events" xmlns:xlink="http://www.w3.org/1999/xlink"><defs /><text font-size="14" text-anchor="middle" x="140.0" y="20">Complete the Table</text><text font-size="14" text-anchor="middle" x="60" y="40">Dec</text><text font-size="14" text-anchor="middle" x="140" y="40">Bin</text><text font-size="14" text-anchor="middle" x="220" y="40">Hex</text><rect fill="none" height="40" stroke="black" width="80" x="20" y="50.0" /><rect fill="none" height="40" stroke="black" width="80" x="20" y="90.0" /><rect fill="none" height="40" stroke="black" width="80" x="20" y="130.0" /><rect fill="none" height="40" stroke="black" width="80" x="20" y="170.0" /><rect fill="none" height="40" stroke="black" width="80" x="20" y="210.0" /><rect fill="none" height="40" stroke="black" width="80" x="20" y="250.0" /><rect fill="none" height="40" stroke="black" width="80" x="20" y="290.0" /><rect fill="none" height="40" stroke="black" width="80" x="20" y="330.0" /><rect fill="none" height="40" stroke="black" width="80" x="20" y="370.0" /><rect fill="none" height="40" stroke="black" width="80" x="20" y="410.0" /><rect fill="none" height="40" stroke="black" width="80" x="20" y="450.0" /><rect fill="none" height="40" stroke="black" width="80" x="20" y="490.0" /><rect fill="none" height="40" stroke="black" width="80" x="20" y="530.0" /><rect fill="none" height="40" stroke="black" width="80" x="20" y="570.0" /><rect fill="none" height="40" stroke="black" width="80" x="20" y="610.0" /><rect fill="none" height="40" stroke="black" width="80" x="20" y="650.0" /><rect fill="none" height="40" stroke="black" width="80" x="100" y="50.0" /><rect fill="none" height="40" stroke="black" width="80" x="100" y="90.0" /><rect fill="none" height="40" stroke="black" width="80" x="100" y="130.0" /><rect fill="none" height="40" stroke="black" width="80" x="100" y="170.0" /><rect fill="none" height="40" stroke="black" width="80" x="100" y="210.0" /><rect fill="none" height="40" stroke="black" width="80" x="100" y="250.0" /><rect fill="none" height="40" stroke="black" width="80" x="100" y="290.0" /><rect fill="none" height="40" stroke="black" width="80" x="100" y="330.0" /><rect fill="none" height="40" stroke="black" width="80" x="100" y="370.0" /><rect fill="none" height="40" stroke="black" width="80" x="100" y="410.0" /><rect fill="none" height="40" stroke="black" width="80" x="100" y="450.0" /><rect fill="none" height="40" stroke="black" width="80" x="100" y="490.0" /><rect fill="none" height="40" stroke="black" width="80" x="100" y="530.0" /><rect fill="none" height="40" stroke="black" width="80" x="100" y="570.0" /><rect fill="none" height="40" stroke="black" width="80" x="100" y="610.0" /><rect fill="none" height="40" stroke="black" width="80" x="100" y="650.0" /><rect fill="none" height="40" stroke="black" width="80" x="180" y="50.0" /><text font-size="14" text-anchor="middle" x="220" y="70.0">0x0</text><rect fill="none" height="40" stroke="black" width="80" x="180" y="90.0" /><text font-size="14" text-anchor="middle" x="220" y="110.0">0x1</text><rect fill="none" height="40" stroke="black" width="80" x="180" y="130.0" /><text font-size="14" text-anchor="middle" x="220" y="150.0">0x2</text><rect fill="none" height="40" stroke="black" width="80" x="180" y="170.0" /><text font-size="14" text-anchor="middle" x="220" y="190.0">0x3</text><rect fill="none" height="40" stroke="black" width="80" x="180" y="210.0" /><text font-size="14" text-anchor="middle" x="220" y="230.0">0x4</text><rect fill="none" height="40" stroke="black" width="80" x="180" y="250.0" /><text font-size="14" text-anchor="middle" x="220" y="270.0">0x5</text><rect fill="none" height="40" stroke="black" width="80" x="180" y="290.0" /><text font-size="14" text-anchor="middle" x="220" y="310.0">0x6</text><rect fill="none" height="40" stroke="black" width="80" x="180" y="330.0" /><text font-size="14" text-anchor="middle" x="220" y="350.0">0x7</text><rect fill="none" height="40" stroke="black" width="80" x="180" y="370.0" /><text font-size="14" text-anchor="middle" x="220" y="390.0">0x8</text><rect fill="none" height="40" stroke="black" width="80" x="180" y="410.0" /><text font-size="14" text-anchor="middle" x="220" y="430.0">0x9</text><rect fill="none" height="40" stroke="black" width="80" x="180" y="450.0" /><text font-size="14" text-anchor="middle" x="220" y="470.0">0xa</text><rect fill="none" height="40" stroke="black" width="80" x="180" y="490.0" /><text font-size="14" text-anchor="middle" x="220" y="510.0">0xb</text><rect fill="none" height="40" stroke="black" width="80" x="180" y="530.0" /><text font-size="14" text-anchor="middle" x="220" y="550.0">0xc</text><rect fill="none" height="40" stroke="black" width="80" x="180" y="570.0" /><text font-size="14" text-anchor="middle" x="220" y="590.0">0xd</text><rect fill="none" height="40" stroke="black" width="80" x="180" y="610.0" /><text font-size="14" text-anchor="middle" x="220" y="630.0">0xe</text><rect fill="none" height="40" stroke="black" width="80" x="180" y="650.0" /><text font-size="14" text-anchor="middle" x="220" y="670.0">0xf</text></svg>