<?xml version="1.0" encoding="utf-8" ?>
<svg baseProfile="full" height="140" version="1.1" width="680" xmlns="http://www.w3.org/2000/svg" xmlns:ev="http://www.w3.org/2001/xml-events" xmlns:xlink="http://www.w3.org/1999/xlink"><defs /><text font-size="14" text-anchor="middle" x="340.0" y="20">Fill in the Binary</text><rect fill="none" height="40" stroke="black" width="40" x="20" y="40" /><text font-size="14" text-anchor="middle" x="40.0" y="35">A[15]</text><rect fill="none" height="40" stroke="black" width="40" x="60" y="40" /><text font-size="14" text-anchor="middle" x="80.0" y="35">A[14]</text><rect fill="none" height="40" stroke="black" width="40" x="100" y="40" /><text font-size="14" text-anchor="middle" x="120.0" y="35">A[13]</text><rect fill="none" height="40" stroke="black" width="40" x="140" y="40" /><text font-size="14" text-anchor="middle" x="160.0" y="35">A[12]</text><rect fill="none" height="40" stroke="black" width="40" x="180" y="40" /><text font-size="14" text-anchor="middle" x="200.0" y="35">A[11]</text><rect fill="none" height="40" stroke="black" width="40" x="220" y="40" /><text font-size="14" text-anchor="middle" x="240.0" y="35">A[10]</text><rect fill="none" height="40" stroke="black" width="40" x="260" y="40" /><text font-size="14" text-anchor="middle" x="280.0" y="35">A[9]</text><rect fill="none" height="40" stroke="black" width="40" x="300" y="40" /><text font-size="14" text-anchor="middle" x="320.0" y="35">A[8]</text><rect fill="none" height="40" stroke="black" width="40" x="340" y="40" /><text font-size="14" text-anchor="middle" x="360.0" y="35">A[7]</text><rect fill="none" height="40" stroke="black" width="40" x="380" y="40" /><text font-size="14" text-anchor="middle" x="400.0" y="35">A[6]</text><rect fill="none" height="40" stroke="black" width="40" x="420" y="40" /><text font-size="14" text-anchor="middle" x="440.0" y="35">A[5]</text><rect fill="none" height="40" stroke="black" width="40" x="460" y="40" /><text font-size="14" text-anchor="middle" x="480.0" y="35">A[4]</text><rect fill="none" height="40" stroke="black" width="40" x="500" y="40" /><text font-size="14" text-anchor="middle" x="520.0" y="35">A[3]</text><rect fill="none" height="40" stroke="black" width="40" x="540" y="40" /><text font-size="14" text-anchor="middle" x="560.0" y="35">A[2]</text><rect fill="none" height="40" stroke="black" width="40" x="580" y="40" /><text font-size="14" text-anchor="middle" x="600.0" y="35">A[1]</text><rect fill="none" height="40" stroke="black" width="40" x="620" y="40" /><text font-size="14" text-anchor="middle" x="640.0" y="35">A[0]</text><rect fill="none" height="40" stroke="black" width="160" x="20" y="80" /><text font-size="14" text-anchor="middle" x="100" y="100.0">0x5</text><rect fill="none" height="40" stroke="black" width="160" x="180" y="80" /><text font-size="14" text-anchor="middle" x="260" y="100.0">0x9</text><rect fill="none" height="40" stroke="black" width="160" x="340" y="80" /><text font-size="14" text-anchor="middle" x="420" y="100.0">0xd</text><rect fill="none" height="40" stroke="black" width="160" x="500" y="80" /><text font-size="14" text-anchor="middle" x="580" y="100.0">0x5</text></svg>