<?xml version="1.0" encoding="utf-8" ?>
<svg baseProfile="full" height="600" version="1.1" width="600" xmlns="http://www.w3.org/2000/svg" xmlns:ev="http://www.w3.org/2001/xml-events" xmlns:xlink="http://www.w3.org/1999/xlink"><defs /><circle cx="300" cy="300" fill="none" r="200" stroke="black" stroke-width="2" /><line stroke="black" stroke-width="1" x1="340.0" x2="390.0" y1="80.0" y2="80.0" /><text font-size="16" text-anchor="start" x="300.0" y="80.0">0000</text><line stroke="black" stroke-width="1" x1="424.19035512031974" x2="474.19035512031974" y1="96.74650284751692" y2="96.74650284751692" /><text font-size="16" text-anchor="start" x="384.19035512031974" y="96.74650284751692">0001</text><line stroke="black" stroke-width="1" x1="495.56349186104046" x2="545.5634918610405" y1="144.43650813895957" y2="144.43650813895957" /><text font-size="16" text-anchor="start" x="455.56349186104046" y="144.43650813895957">0010</text><line stroke="black" stroke-width="1" x1="543.2534971524831" x2="593.2534971524831" y1="215.80964487968026" y2="215.80964487968026" /><text font-size="16" text-anchor="start" x="503.2534971524831" y="215.80964487968026">0011</text><line stroke="black" stroke-width="1" x1="560.0" x2="610.0" y1="300.0" y2="300.0" /><text font-size="16" text-anchor="start" x="520.0" y="300.0">0100</text><line stroke="black" stroke-width="1" x1="543.2534971524831" x2="593.2534971524831" y1="384.19035512031974" y2="384.19035512031974" /><text font-size="16" text-anchor="start" x="503.2534971524831" y="384.19035512031974">0101</text><line stroke="black" stroke-width="1" x1="495.56349186104046" x2="545.5634918610405" y1="455.56349186104046" y2="455.56349186104046" /><text font-size="16" text-anchor="start" x="455.56349186104046" y="455.56349186104046">0110</text><line stroke="black" stroke-width="1" x1="424.19035512031974" x2="474.19035512031974" y1="503.2534971524831" y2="503.2534971524831" /><text font-size="16" text-anchor="start" x="384.19035512031974" y="503.2534971524831">0111</text><line stroke="black" stroke-width="1" x1="260.0" x2="210.0" y1="520.0" y2="520.0" /><text font-size="16" text-anchor="end" x="300.0" y="520.0">1000</text><line stroke="black" stroke-width="1" x1="175.80964487968026" x2="125.80964487968026" y1="503.2534971524831" y2="503.2534971524831" /><text font-size="16" text-anchor="end" x="215.80964487968026" y="503.2534971524831">1001</text><line stroke="black" stroke-width="1" x1="104.43650813895957" x2="54.43650813895957" y1="455.56349186104046" y2="455.56349186104046" /><text font-size="16" text-anchor="end" x="144.43650813895957" y="455.56349186104046">1010</text><line stroke="black" stroke-width="1" x1="56.74650284751698" x2="6.746502847516979" y1="384.19035512031985" y2="384.19035512031985" /><text font-size="16" text-anchor="end" x="96.74650284751698" y="384.19035512031985">1011</text><line stroke="black" stroke-width="1" x1="40.0" x2="-10.0" y1="300.0" y2="300.0" /><text font-size="16" text-anchor="end" x="80.0" y="300.0">1100</text><line stroke="black" stroke-width="1" x1="56.74650284751695" x2="6.74650284751695" y1="215.8096448796802" y2="215.8096448796802" /><text font-size="16" text-anchor="end" x="96.74650284751695" y="215.8096448796802">1101</text><line stroke="black" stroke-width="1" x1="104.43650813895951" x2="54.43650813895951" y1="144.43650813895957" y2="144.43650813895957" /><text font-size="16" text-anchor="end" x="144.4365081389595" y="144.43650813895957">1110</text><line stroke="black" stroke-width="1" x1="175.80964487968012" x2="125.80964487968012" y1="96.74650284751698" y2="96.74650284751698" /><text font-size="16" text-anchor="end" x="215.80964487968012" y="96.74650284751698">1111</text></svg>