<?xml version="1.0" encoding="utf-8" ?>
<svg baseProfile="full" height="300" version="1.1" width="200" xmlns="http://www.w3.org/2000/svg" xmlns:ev="http://www.w3.org/2001/xml-events" xmlns:xlink="http://www.w3.org/1999/xlink"><defs /><text font-size="14" text-anchor="middle" x="100.0" y="20">Represent -7+-6</text><rect fill="none" height="40" stroke="black" width="40" x="20" y="40" /><text font-size="14" text-anchor="middle" x="40.0" y="35">Cin[3]</text><rect fill="none" height="40" stroke="black" width="40" x="60" y="40" /><text font-size="14" text-anchor="middle" x="80.0" y="35">Cin[2]</text><rect fill="none" height="40" stroke="black" width="40" x="100" y="40" /><text font-size="14" text-anchor="middle" x="120.0" y="35">Cin[1]</text><rect fill="none" height="40" stroke="black" width="40" x="140" y="40" /><text font-size="14" text-anchor="middle" x="160.0" y="35">Cin[0]</text><text font-size="14" text-anchor="middle" x="160.0" y="60.0">0</text><rect fill="none" height="40" stroke="black" width="40" x="20" y="100" /><text font-size="14" text-anchor="middle" x="40.0" y="95">A[3]</text><rect fill="none" height="40" stroke="black" width="40" x="60" y="100" /><text font-size="14" text-anchor="middle" x="80.0" y="95">A[2]</text><rect fill="none" height="40" stroke="black" width="40" x="100" y="100" /><text font-size="14" text-anchor="middle" x="120.0" y="95">A[1]</text><rect fill="none" height="40" stroke="black" width="40" x="140" y="100" /><text font-size="14" text-anchor="middle" x="160.0" y="95">A[0]</text><rect fill="none" height="40" stroke="black" width="40" x="20" y="160" /><text font-size="14" text-anchor="middle" x="40.0" y="155">B[3]</text><rect fill="none" height="40" stroke="black" width="40" x="60" y="160" /><text font-size="14" text-anchor="middle" x="80.0" y="155">B[2]</text><rect fill="none" height="40" stroke="black" width="40" x="100" y="160" /><text font-size="14" text-anchor="middle" x="120.0" y="155">B[1]</text><rect fill="none" height="40" stroke="black" width="40" x="140" y="160" /><text font-size="14" text-anchor="middle" x="160.0" y="155">B[0]</text><text font-size="20" text-anchor="middle" x="10.0" y="160">+</text><line stroke="black" stroke-width="1" x1="20" x2="180" y1="220" y2="220" /><rect fill="none" height="40" stroke="black" width="40" x="20" y="240" /><text font-size="14" text-anchor="middle" x="40.0" y="235">S[3]</text><rect fill="none" height="40" stroke="black" width="40" x="60" y="240" /><text font-size="14" text-anchor="middle" x="80.0" y="235">S[2]</text><rect fill="none" height="40" stroke="black" width="40" x="100" y="240" /><text font-size="14" text-anchor="middle" x="120.0" y="235">S[1]</text><rect fill="none" height="40" stroke="black" width="40" x="140" y="240" /><text font-size="14" text-anchor="middle" x="160.0" y="235">S[0]</text></svg>