<?xml version="1.0" encoding="utf-8" ?>
<svg baseProfile="full" height="140" version="1.1" width="360" xmlns="http://www.w3.org/2000/svg" xmlns:ev="http://www.w3.org/2001/xml-events" xmlns:xlink="http://www.w3.org/1999/xlink"><defs /><text font-size="14" text-anchor="middle" x="180.0" y="20">Fill in the Hexidecimal</text><rect fill="none" height="40" stroke="black" width="40" x="20" y="40" /><text font-size="14" text-anchor="middle" x="40.0" y="35">A[7]</text><text font-size="14" text-anchor="middle" x="40.0" y="60.0">1</text><rect fill="none" height="40" stroke="black" width="40" x="60" y="40" /><text font-size="14" text-anchor="middle" x="80.0" y="35">A[6]</text><text font-size="14" text-anchor="middle" x="80.0" y="60.0">0</text><rect fill="none" height="40" stroke="black" width="40" x="100" y="40" /><text font-size="14" text-anchor="middle" x="120.0" y="35">A[5]</text><text font-size="14" text-anchor="middle" x="120.0" y="60.0">1</text><rect fill="none" height="40" stroke="black" width="40" x="140" y="40" /><text font-size="14" text-anchor="middle" x="160.0" y="35">A[4]</text><text font-size="14" text-anchor="middle" x="160.0" y="60.0">1</text><rect fill="none" height="40" stroke="black" width="40" x="180" y="40" /><text font-size="14" text-anchor="middle" x="200.0" y="35">A[3]</text><text font-size="14" text-anchor="middle" x="200.0" y="60.0">0</text><rect fill="none" height="40" stroke="black" width="40" x="220" y="40" /><text font-size="14" text-anchor="middle" x="240.0" y="35">A[2]</text><text font-size="14" text-anchor="middle" x="240.0" y="60.0">0</text><rect fill="none" height="40" stroke="black" width="40" x="260" y="40" /><text font-size="14" text-anchor="middle" x="280.0" y="35">A[1]</text><text font-size="14" text-anchor="middle" x="280.0" y="60.0">1</text><rect fill="none" height="40" stroke="black" width="40" x="300" y="40" /><text font-size="14" text-anchor="middle" x="320.0" y="35">A[0]</text><text font-size="14" text-anchor="middle" x="320.0" y="60.0">0</text><rect fill="none" height="40" stroke="black" width="160" x="20" y="80" /><rect fill="none" height="40" stroke="black" width="160" x="180" y="80" /></svg>