<?xml version="1.0" encoding="utf-8" ?>
<svg baseProfile="full" height="140" version="1.1" width="600" xmlns="http://www.w3.org/2000/svg" xmlns:ev="http://www.w3.org/2001/xml-events" xmlns:xlink="http://www.w3.org/1999/xlink"><defs /><path d="M 38.0 2.59375 L 38.0 5.0 L 38.0 45.0 L 38.0 47.40625 L 40.109024 46.34375 L 79.184573 26.87052 L 78.840667 22.958095 L 40.109024 3.65625 L 38.0 2.59375 z M 41.109024 7.40625 L 76.268082 25.0 L 41.109024 42.59375 L 41.109024 7.40625 z" transform="translate(-40,-5) translate(50,50)" /><circle cx="40" cy="20" fill="none" r="3" stroke="black" stroke-width="3" transform="translate(50,50)" /><path d="M 38.0 2.59375 L 38.0 5.0 L 38.0 45.0 L 38.0 47.40625 L 40.109024 46.34375 L 79.184573 26.87052 L 78.840667 22.958095 L 40.109024 3.65625 L 38.0 2.59375 z M 41.109024 7.40625 L 76.268082 25.0 L 41.109024 42.59375 L 41.109024 7.40625 z" transform="translate(-40,-5) translate(150,50)" /><circle cx="40" cy="20" fill="none" r="3" stroke="black" stroke-width="3" transform="translate(150,50)" /><line stroke="black" stroke-width="2" x1="90" x2="120.0" y1="70" y2="70" /><line stroke="black" stroke-width="2" x1="120.0" x2="120.0" y1="70" y2="70" /><line stroke="black" stroke-width="2" x1="120.0" x2="150" y1="70" y2="70" /><line stroke="black" stroke-width="2" x1="190" x2="200.0" y1="70" y2="70" /><line stroke="black" stroke-width="2" x1="200.0" x2="200.0" y1="70" y2="70" /><line stroke="black" stroke-width="2" x1="200.0" x2="210" y1="70" y2="70" /><line stroke="black" stroke-width="2" x1="50" x2="40.0" y1="70" y2="70" /><line stroke="black" stroke-width="2" x1="40.0" x2="40.0" y1="70" y2="70" /><line stroke="black" stroke-width="2" x1="40.0" x2="30" y1="70" y2="70" /><line stroke="black" stroke-width="2" x1="30" x2="30.0" y1="70" y2="70" /><line stroke="black" stroke-width="2" x1="30.0" x2="30.0" y1="70" y2="20" /><line stroke="black" stroke-width="2" x1="30.0" x2="30" y1="20" y2="20" /><line stroke="black" stroke-width="2" x1="210" x2="210.0" y1="70" y2="70" /><line stroke="black" stroke-width="2" x1="210.0" x2="210.0" y1="70" y2="20" /><line stroke="black" stroke-width="2" x1="210.0" x2="210" y1="20" y2="20" /><line stroke="black" stroke-width="2" x1="210" x2="120.0" y1="20" y2="20" /><line stroke="black" stroke-width="2" x1="120.0" x2="120.0" y1="20" y2="20" /><line stroke="black" stroke-width="2" x1="120.0" x2="30" y1="20" y2="20" /><text font-size="14" text-anchor="middle" x="40" y="85">0</text></svg>