<?xml version="1.0" encoding="utf-8" ?>
<svg baseProfile="full" height="250" version="1.1" width="400" xmlns="http://www.w3.org/2000/svg" xmlns:ev="http://www.w3.org/2001/xml-events" xmlns:xlink="http://www.w3.org/1999/xlink"><defs /><rect fill="none" height="100" stroke="black" width="80" x="50" y="50" /><text font-size="14" text-anchor="start" x="55" y="70">D</text><line stroke="black" stroke-width="2" x1="40" x2="50" y1="70" y2="70" /><text font-size="14" text-anchor="start" x="55" y="140.0">WE</text><line stroke="black" stroke-width="2" x1="40" x2="50" y1="140.0" y2="140.0" /><text font-size="14" text-anchor="end" x="125" y="70">Q</text><line stroke="black" stroke-width="2" x1="130" x2="140" y1="70" y2="70" /><text font-size="14" text-anchor="middle" x="90.0" y="100.0">D-latch</text><path d="m 28.0 81.0 0.0 -95.0 32.5 17.5 0.0 60.0 -32.5 17.5 z" fill="none" stroke="black" stroke-width="3" transform="translate(-50,25) translate(200,50)" /><text font-size="14" text-anchor="middle" transform="translate(200,50)" x="-10" y="125">S</text><line stroke="black" stroke-width="2" transform="translate(200,50)" x1="-5" x2="-5" y1="95" y2="110" /><text font-size="14" text-anchor="middle" transform="translate(200,50)" x="-35" y="30">Q'</text><line stroke="black" stroke-width="2" transform="translate(200,50)" x1="-20" x2="-30" y1="30" y2="30" /><text font-size="14" text-anchor="middle" transform="translate(200,50)" x="-35" y="90.0">D</text><line stroke="black" stroke-width="2" transform="translate(200,50)" x1="-20" x2="-30" y1="90.0" y2="90.0" /><text font-size="14" text-anchor="middle" transform="translate(200,50)" x="30" y="55">Q</text><line stroke="black" stroke-width="2" transform="translate(200,50)" x1="10" x2="25" y1="55" y2="55" /><rect fill="none" height="160" stroke="black" width="80" x="280" y="50" /><text font-size="14" text-anchor="middle" x="290.0" y="50">D</text><line stroke="black" stroke-width="1" x1="300" x2="300" y1="50" y2="210" /><text font-size="14" text-anchor="middle" x="310.0" y="50">WE</text><line stroke="black" stroke-width="1" x1="320" x2="320" y1="50" y2="210" /><text font-size="14" text-anchor="middle" x="330.0" y="50">Q'</text><line stroke="black" stroke-width="2" x1="340" x2="340" y1="50" y2="210" /><text font-size="14" text-anchor="middle" x="350.0" y="50">Q</text><line stroke="black" stroke-width="1" x1="360" x2="360" y1="50" y2="210" /><line stroke="black" stroke-width="1" x1="280" x2="360" y1="50" y2="50" /><line stroke="black" stroke-width="1" x1="280" x2="360" y1="70" y2="70" /><line stroke="black" stroke-width="1" x1="280" x2="360" y1="90" y2="90" /><line stroke="black" stroke-width="1" x1="280" x2="360" y1="110" y2="110" /><line stroke="black" stroke-width="1" x1="280" x2="360" y1="130" y2="130" /><line stroke="black" stroke-width="1" x1="280" x2="360" y1="150" y2="150" /><line stroke="black" stroke-width="1" x1="280" x2="360" y1="170" y2="170" /><line stroke="black" stroke-width="1" x1="280" x2="360" y1="190" y2="190" /><text font-size="14" text-anchor="middle" x="200.0" y="25.0">Complete the Truth Table</text></svg>