<?xml version="1.0" encoding="utf-8" ?>
<svg baseProfile="full" height="250" version="1.1" width="400" xmlns="http://www.w3.org/2000/svg" xmlns:ev="http://www.w3.org/2001/xml-events" xmlns:xlink="http://www.w3.org/1999/xlink"><defs /><path d="M 50 50 L 60 60 L 60 120 L 50 130 z" fill="none" stroke="black" stroke-width="2" /><text font-size="14" text-anchor="middle" x="55" y="150">WE</text><line stroke="black" stroke-width="2" x1="55" x2="55" y1="125" y2="140" /><text font-size="14" text-anchor="middle" x="35" y="70">Q'</text><text font-size="10" text-anchor="middle" x="55" y="70">0</text><line stroke="black" stroke-width="2" x1="50" x2="40" y1="70" y2="70" /><text font-size="14" text-anchor="middle" x="35" y="110.0">D</text><text font-size="10" text-anchor="middle" x="55" y="110.0">1</text><line stroke="black" stroke-width="2" x1="50" x2="40" y1="110.0" y2="110.0" /><text font-size="14" text-anchor="middle" x="77" y="95.0">Q</text><line stroke="black" stroke-width="2" x1="60" x2="70" y1="90.0" y2="90.0" /><rect fill="none" height="160" stroke="black" width="80" x="130" y="50" /><text font-size="14" text-anchor="middle" x="140.0" y="50">D</text><line stroke="black" stroke-width="1" x1="150" x2="150" y1="50" y2="210" /><text font-size="14" text-anchor="middle" x="160.0" y="50">WE</text><line stroke="black" stroke-width="1" x1="170" x2="170" y1="50" y2="210" /><text font-size="14" text-anchor="middle" x="180.0" y="50">Q'</text><line stroke="black" stroke-width="2" x1="190" x2="190" y1="50" y2="210" /><text font-size="14" text-anchor="middle" x="200.0" y="50">Q</text><line stroke="black" stroke-width="1" x1="210" x2="210" y1="50" y2="210" /><line stroke="black" stroke-width="1" x1="130" x2="210" y1="50" y2="50" /><line stroke="black" stroke-width="1" x1="130" x2="210" y1="70" y2="70" /><line stroke="black" stroke-width="1" x1="130" x2="210" y1="90" y2="90" /><line stroke="black" stroke-width="1" x1="130" x2="210" y1="110" y2="110" /><line stroke="black" stroke-width="1" x1="130" x2="210" y1="130" y2="130" /><line stroke="black" stroke-width="1" x1="130" x2="210" y1="150" y2="150" /><line stroke="black" stroke-width="1" x1="130" x2="210" y1="170" y2="170" /><line stroke="black" stroke-width="1" x1="130" x2="210" y1="190" y2="190" /><rect fill="none" height="100" stroke="black" stroke-width="2" width="80" x="280" y="50" /><text font-size="14" text-anchor="start" x="285" y="70">D</text><line stroke="black" stroke-width="2" x1="270" x2="280" y1="70" y2="70" /><text font-size="14" text-anchor="start" x="285" y="140.0">WE</text><line stroke="black" stroke-width="2" x1="270" x2="280" y1="140.0" y2="140.0" /><text font-size="14" text-anchor="end" x="355" y="70">Q</text><line stroke="black" stroke-width="2" x1="360" x2="370" y1="70" y2="70" /><text font-size="14" text-anchor="middle" x="320.0" y="100.0">D-latch</text><text font-size="14" text-anchor="middle" x="200.0" y="25.0">Complete the Truth Table</text></svg>