<?xml version="1.0" encoding="utf-8" ?>
<svg baseProfile="full" height="220" version="1.1" width="600" xmlns="http://www.w3.org/2000/svg" xmlns:ev="http://www.w3.org/2001/xml-events" xmlns:xlink="http://www.w3.org/1999/xlink"><defs /><line stroke="black" stroke-width="2" x1="50" x2="550" y1="180" y2="180" /><line stroke="black" stroke-width="2" x1="50" x2="50" y1="50" y2="180" /><text font-size="14" text-anchor="end" x="45" y="85.0">D</text><text font-size="14" text-anchor="end" x="45" y="145.0">CLK</text><path d="M 50 60 L 50 60 L 70 60 L 70 110 L 147 110 L 147 60 L 170 60 L 170 110 L 220 110 L 220 60 L 280 60 L 280 110 L 311 110 L 311 60 L 346 60 L 346 110 L 421 110 L 421 60 L 468 60 L 468 110 L 539 110" fill="none" stroke="black" stroke-width="2" /><path d="M 50 120 L 50 120 L 150 120 L 150 170 L 250 170 L 250 120 L 350 120 L 350 170 L 450 170 L 450 120 L 550 120" fill="none" stroke="black" stroke-width="2" /><line stroke="black" stroke-dasharray="4" stroke-width="2" x1="233" x2="233" y1="50" y2="180" /><line stroke="black" stroke-dasharray="4" stroke-width="2" x1="521" x2="521" y1="50" y2="180" /><line stroke="black" stroke-dasharray="4" stroke-width="2" x1="325" x2="325" y1="50" y2="180" /><text font-size="18" text-anchor="middle" x="233" y="45">T0</text><text font-size="18" text-anchor="middle" x="325" y="45">T1</text><text font-size="18" text-anchor="middle" x="521" y="45">T2</text></svg>