<?xml version="1.0" encoding="utf-8" ?>
<svg baseProfile="full" height="340" version="1.1" width="600" xmlns="http://www.w3.org/2000/svg" xmlns:ev="http://www.w3.org/2001/xml-events" xmlns:xlink="http://www.w3.org/1999/xlink"><defs /><line stroke="black" stroke-width="2" x1="50" x2="550" y1="290" y2="290" /><line stroke="black" stroke-width="2" x1="50" x2="50" y1="50" y2="290" /><text font-size="14" text-anchor="end" x="45" y="75.0">Q</text><text font-size="14" text-anchor="end" x="45" y="135.0">★</text><text font-size="14" text-anchor="end" x="45" y="195.0">D</text><text font-size="14" text-anchor="end" x="45" y="255.0">CLK</text><path d="M 50 170 L 50 170 L 109 170 L 109 220 L 136 220 L 136 170 L 170 170 L 170 220 L 190 220 L 190 170 L 248 170 L 248 220 L 276 220 L 276 170 L 319 170 L 319 220 L 357 220 L 357 170 L 429 170 L 429 220 L 495 220" fill="none" stroke="black" stroke-width="2" /><path d="M 50 230 L 50 230 L 150 230 L 150 280 L 250 280 L 250 230 L 350 230 L 350 280 L 450 280 L 450 230 L 550 230" fill="none" stroke="black" stroke-width="2" /><text font-size="14" text-anchor="middle" x="300.0" y="50">Draw the signal waveform for Q and ★</text></svg>