<?xml version="1.0" encoding="utf-8" ?>
<svg baseProfile="full" height="340" version="1.1" width="600" xmlns="http://www.w3.org/2000/svg" xmlns:ev="http://www.w3.org/2001/xml-events" xmlns:xlink="http://www.w3.org/1999/xlink"><defs /><line stroke="black" stroke-width="2" x1="50" x2="550" y1="290" y2="290" /><line stroke="black" stroke-width="2" x1="50" x2="50" y1="50" y2="290" /><text font-size="14" text-anchor="end" x="45" y="75.0">Q</text><text font-size="14" text-anchor="end" x="45" y="135.0">★</text><text font-size="14" text-anchor="end" x="45" y="195.0">D</text><text font-size="14" text-anchor="end" x="45" y="255.0">CLK</text><path d="M 50 170 L 50 170 L 80 170 L 80 220 L 127 220 L 127 170 L 199 170 L 199 220 L 222 220 L 222 170 L 276 170 L 276 220 L 329 220 L 329 170 L 406 170 L 406 220 L 451 220 L 451 170 L 509 170" fill="none" stroke="black" stroke-width="2" /><path d="M 50 230 L 50 230 L 150 230 L 150 280 L 250 280 L 250 230 L 350 230 L 350 280 L 450 280 L 450 230 L 550 230" fill="none" stroke="black" stroke-width="2" /><text font-size="14" text-anchor="middle" x="300.0" y="50">Draw the signal waveform for Q and ★</text></svg>