<?xml version="1.0" encoding="utf-8" ?>
<svg baseProfile="full" height="590" version="1.1" width="600" xmlns="http://www.w3.org/2000/svg" xmlns:ev="http://www.w3.org/2001/xml-events" xmlns:xlink="http://www.w3.org/1999/xlink"><defs /><rect fill="none" height="100" stroke="black" stroke-width="2" width="80" x="150" y="100" /><text font-size="14" text-anchor="start" x="155" y="120">D</text><line stroke="black" stroke-width="2" x1="140" x2="150" y1="120" y2="120" /><text font-size="14" text-anchor="start" x="155" y="190.0">WE</text><line stroke="black" stroke-width="2" x1="140" x2="150" y1="190.0" y2="190.0" /><text font-size="14" text-anchor="end" x="225" y="120">Q</text><line stroke="black" stroke-width="2" x1="230" x2="240" y1="120" y2="120" /><text font-size="14" text-anchor="middle" x="190.0" y="150.0">D-latch</text><rect fill="none" height="100" stroke="black" stroke-width="2" width="80" x="350" y="100" /><text font-size="14" text-anchor="start" x="355" y="120">D</text><line stroke="black" stroke-width="2" x1="340" x2="350" y1="120" y2="120" /><text font-size="14" text-anchor="start" x="355" y="190.0">WE</text><line stroke="black" stroke-width="2" x1="340" x2="350" y1="190.0" y2="190.0" /><text font-size="14" text-anchor="end" x="425" y="120">Q</text><line stroke="black" stroke-width="2" x1="430" x2="440" y1="120" y2="120" /><text font-size="14" text-anchor="middle" x="390.0" y="150.0">D-latch</text><path d="M 38.0 2.59375 L 38.0 5.0 L 38.0 45.0 L 38.0 47.40625 L 40.109024 46.34375 L 79.184573 26.87052 L 78.840667 22.958095 L 40.109024 3.65625 L 38.0 2.59375 z M 41.109024 7.40625 L 76.268082 25.0 L 41.109024 42.59375 L 41.109024 7.40625 z" transform="translate(-40,-5) translate(100,220)" /><circle cx="40" cy="20" fill="none" r="3" stroke="black" stroke-width="3" transform="translate(100,220)" /><path d="M 38.0 2.59375 L 38.0 5.0 L 38.0 45.0 L 38.0 47.40625 L 40.109024 46.34375 L 79.184573 26.87052 L 78.840667 22.958095 L 40.109024 3.65625 L 38.0 2.59375 z M 41.109024 7.40625 L 76.268082 25.0 L 41.109024 42.59375 L 41.109024 7.40625 z" transform="translate(-40,-5) translate(250,220)" /><circle cx="40" cy="20" fill="none" r="3" stroke="black" stroke-width="3" transform="translate(250,220)" /><rect fill="none" height="30" stroke="black" stroke-width="2" width="30" x="50" y="220" /><text font-size="14" text-anchor="end" x="75" y="240">CLK</text><line stroke="black" stroke-width="2" x1="80" x2="90" y1="240" y2="240" /><text font-size="14" text-anchor="middle" x="65.0" y="235.0" /><rect fill="none" height="30" stroke="black" stroke-width="2" width="30" x="50" y="100" /><text font-size="14" text-anchor="end" x="75" y="120">D</text><line stroke="black" stroke-width="2" x1="80" x2="90" y1="120" y2="120" /><text font-size="14" text-anchor="middle" x="65.0" y="115.0" /><rect fill="none" height="30" stroke="black" stroke-width="2" width="30" x="500" y="100" /><text font-size="14" text-anchor="start" x="505" y="120">Q</text><line stroke="black" stroke-width="2" x1="490" x2="500" y1="120" y2="120" /><text font-size="14" text-anchor="middle" x="515.0" y="115.0" /><line stroke="black" stroke-width="2" x1="90" x2="95.0" y1="240" y2="240" /><line stroke="black" stroke-width="2" x1="95.0" x2="95.0" y1="240" y2="240" /><line stroke="black" stroke-width="2" x1="95.0" x2="100" y1="240" y2="240" /><line stroke="black" stroke-width="2" x1="140" x2="140.0" y1="240" y2="240" /><line stroke="black" stroke-width="2" x1="140.0" x2="140.0" y1="240" y2="190.0" /><line stroke="black" stroke-width="2" x1="140.0" x2="140" y1="190.0" y2="190.0" /><line stroke="black" stroke-width="2" x1="140" x2="195.0" y1="240" y2="240" /><line stroke="black" stroke-width="2" x1="195.0" x2="195.0" y1="240" y2="240" /><line stroke="black" stroke-width="2" x1="195.0" x2="250" y1="240" y2="240" /><line stroke="black" stroke-width="2" x1="90" x2="115.0" y1="120" y2="120" /><line stroke="black" stroke-width="2" x1="115.0" x2="115.0" y1="120" y2="120" /><line stroke="black" stroke-width="2" x1="115.0" x2="140" y1="120" y2="120" /><line stroke="black" stroke-width="2" x1="240" x2="290.0" y1="120" y2="120" /><line stroke="black" stroke-width="2" x1="290.0" x2="290.0" y1="120" y2="120" /><line stroke="black" stroke-width="2" x1="290.0" x2="340" y1="120" y2="120" /><line stroke="black" stroke-width="2" x1="290" x2="315.0" y1="240" y2="240" /><line stroke="black" stroke-width="2" x1="315.0" x2="315.0" y1="240" y2="190.0" /><line stroke="black" stroke-width="2" x1="315.0" x2="340" y1="190.0" y2="190.0" /><line stroke="black" stroke-width="2" x1="440" x2="465.0" y1="120" y2="120" /><line stroke="black" stroke-width="2" x1="465.0" x2="465.0" y1="120" y2="120" /><line stroke="black" stroke-width="2" x1="465.0" x2="490" y1="120" y2="120" /><text font-size="20" text-anchor="middle" x="290.0" y="105.0">★</text><line stroke="black" stroke-width="2" x1="50" x2="550" y1="540" y2="540" /><line stroke="black" stroke-width="2" x1="50" x2="50" y1="300" y2="540" /><text font-size="14" text-anchor="end" x="45" y="325.0">Q</text><text font-size="14" text-anchor="end" x="45" y="385.0">★</text><text font-size="14" text-anchor="end" x="45" y="445.0">D</text><text font-size="14" text-anchor="end" x="45" y="505.0">CLK</text><path d="M 50 420 L 50 420 L 78 420 L 78 470 L 127 470 L 127 420 L 188 420 L 188 470 L 217 470 L 217 420 L 280 420 L 280 470 L 320 470 L 320 420 L 391 420 L 391 470 L 432 470 L 432 420 L 491 420" fill="none" stroke="black" stroke-width="2" /><path d="M 50 480 L 50 480 L 150 480 L 150 530 L 250 530 L 250 480 L 350 480 L 350 530 L 450 530 L 450 480 L 550 480" fill="none" stroke="black" stroke-width="2" /><text font-size="14" text-anchor="middle" x="300.0" y="50">Draw the signal waveform for Q and ★</text></svg>