<?xml version="1.0" encoding="utf-8" ?>
<svg baseProfile="full" height="860" version="1.1" width="700" xmlns="http://www.w3.org/2000/svg" xmlns:ev="http://www.w3.org/2001/xml-events" xmlns:xlink="http://www.w3.org/1999/xlink"><defs /><path d="m 28.0 81.0 0.0 -95.0 32.5 17.5 0.0 60.0 -32.5 17.5 z" fill="none" stroke="black" stroke-width="2" transform="translate(-50,25) translate(470.0,180)" /><text font-size="14" text-anchor="middle" transform="translate(470.0,180)" x="-10" y="125">S</text><line stroke="black" stroke-width="2" transform="translate(470.0,180)" x1="-5" x2="-5" y1="95" y2="110" /><text font-size="14" text-anchor="middle" transform="translate(470.0,180)" x="-35" y="30"> </text><line stroke="black" stroke-width="2" transform="translate(470.0,180)" x1="-20" x2="-30" y1="30" y2="30" /><text font-size="14" text-anchor="middle" transform="translate(470.0,180)" x="-35" y="90.0"> </text><line stroke="black" stroke-width="2" transform="translate(470.0,180)" x1="-20" x2="-30" y1="90.0" y2="90.0" /><text font-size="14" text-anchor="middle" transform="translate(470.0,180)" x="30" y="55"> </text><line stroke="black" stroke-width="2" transform="translate(470.0,180)" x1="10" x2="25" y1="55" y2="55" /><path d="m 28.0 81.0 0.0 -95.0 32.5 17.5 0.0 60.0 -32.5 17.5 z" fill="none" stroke="black" stroke-width="2" transform="translate(-50,25) translate(120,180)" /><text font-size="14" text-anchor="middle" transform="translate(120,180)" x="-10" y="125">S</text><line stroke="black" stroke-width="2" transform="translate(120,180)" x1="-5" x2="-5" y1="95" y2="110" /><text font-size="14" text-anchor="middle" transform="translate(120,180)" x="-35" y="30"> </text><line stroke="black" stroke-width="2" transform="translate(120,180)" x1="-20" x2="-30" y1="30" y2="30" /><text font-size="14" text-anchor="middle" transform="translate(120,180)" x="-35" y="90.0"> </text><line stroke="black" stroke-width="2" transform="translate(120,180)" x1="-20" x2="-30" y1="90.0" y2="90.0" /><text font-size="14" text-anchor="middle" transform="translate(120,180)" x="30" y="55"> </text><line stroke="black" stroke-width="2" transform="translate(120,180)" x1="10" x2="25" y1="55" y2="55" /><rect fill="none" height="60" stroke="black" stroke-width="2" width="80" x="430.0" y="380" /><text font-size="14" text-anchor="start" x="435.0" y="400">A</text><line stroke="black" stroke-width="2" x1="420.0" x2="430.0" y1="400" y2="400" /><text font-size="14" text-anchor="start" x="435.0" y="430.0">B</text><line stroke="black" stroke-width="2" x1="420.0" x2="430.0" y1="430.0" y2="430.0" /><text font-size="14" text-anchor="end" x="505.0" y="400">Y</text><line stroke="black" stroke-width="2" x1="510.0" x2="520.0" y1="400" y2="400" /><text font-size="14" text-anchor="middle" x="470.0" y="410.0">+</text><rect fill="none" height="60" stroke="black" stroke-width="2" width="80" x="80" y="380" /><text font-size="14" text-anchor="start" x="85" y="400">A</text><line stroke="black" stroke-width="2" x1="70" x2="80" y1="400" y2="400" /><text font-size="14" text-anchor="start" x="85" y="430.0">B</text><line stroke="black" stroke-width="2" x1="70" x2="80" y1="430.0" y2="430.0" /><text font-size="14" text-anchor="end" x="155" y="400">Y</text><line stroke="black" stroke-width="2" x1="160" x2="170" y1="400" y2="400" /><text font-size="14" text-anchor="middle" x="120.0" y="410.0">*</text><rect fill="none" height="30" stroke="black" stroke-width="2" width="80" x="430.0" y="480" /><text font-size="14" text-anchor="start" x="435.0" y="500">A</text><line stroke="black" stroke-width="2" x1="420.0" x2="430.0" y1="500" y2="500" /><text font-size="14" text-anchor="end" x="505.0" y="500">Z</text><line stroke="black" stroke-width="2" x1="510.0" x2="520.0" y1="500" y2="500" /><text font-size="14" text-anchor="middle" x="470.0" y="495.0">=0?</text><rect fill="none" height="30" stroke="black" stroke-width="2" width="30" x="375.0" y="80" /><text font-size="14" text-anchor="end" x="400.0" y="100" /><line stroke="black" stroke-width="2" x1="405.0" x2="415.0" y1="100" y2="100" /><text font-size="14" text-anchor="middle" x="390.0" y="95.0">N</text><rect fill="none" height="30" stroke="black" stroke-width="2" width="80" x="250.0" y="80" /><text font-size="14" text-anchor="end" x="325.0" y="100" /><line stroke="black" stroke-width="2" x1="330.0" x2="340.0" y1="100" y2="100" /><text font-size="14" text-anchor="middle" x="290.0" y="95.0">CLK</text><rect fill="none" height="200" stroke="black" stroke-width="2" width="200" x="250.0" y="580" /><text font-size="14" text-anchor="start" x="255.0" y="600"> </text><line stroke="black" stroke-width="2" x1="240.0" x2="250.0" y1="600" y2="600" /><text font-size="14" text-anchor="start" x="255.0" y="642.5"> </text><line stroke="black" stroke-width="2" x1="240.0" x2="250.0" y1="642.5" y2="642.5" /><text font-size="14" text-anchor="start" x="255.0" y="685.0"> </text><line stroke="black" stroke-width="2" x1="240.0" x2="250.0" y1="685.0" y2="685.0" /><text font-size="14" text-anchor="start" x="255.0" y="727.5"> </text><line stroke="black" stroke-width="2" x1="240.0" x2="250.0" y1="727.5" y2="727.5" /><text font-size="14" text-anchor="start" x="255.0" y="770.0"> </text><line stroke="black" stroke-width="2" x1="240.0" x2="250.0" y1="770.0" y2="770.0" /><text font-size="14" text-anchor="end" x="445.0" y="600"> </text><line stroke="black" stroke-width="2" x1="450.0" x2="460.0" y1="600" y2="600" /><text font-size="14" text-anchor="end" x="445.0" y="642.5"> </text><line stroke="black" stroke-width="2" x1="450.0" x2="460.0" y1="642.5" y2="642.5" /><text font-size="14" text-anchor="end" x="445.0" y="685.0"> </text><line stroke="black" stroke-width="2" x1="450.0" x2="460.0" y1="685.0" y2="685.0" /><text font-size="14" text-anchor="end" x="445.0" y="727.5"> </text><line stroke="black" stroke-width="2" x1="450.0" x2="460.0" y1="727.5" y2="727.5" /><text font-size="14" text-anchor="end" x="445.0" y="770.0"> </text><line stroke="black" stroke-width="2" x1="450.0" x2="460.0" y1="770.0" y2="770.0" /><text font-size="14" text-anchor="middle" x="350.0" y="610">Control Logic FSM</text><text font-size="14" text-anchor="middle" x="350.0" y="40">Complete the circuit so that it computes N! = N*(N-1)*(N-2)*...*3*2*1</text></svg>