<?xml version="1.0" encoding="utf-8" ?>
<svg baseProfile="full" height="550" version="1.1" width="700" xmlns="http://www.w3.org/2000/svg" xmlns:ev="http://www.w3.org/2001/xml-events" xmlns:xlink="http://www.w3.org/1999/xlink"><defs /><path d="m 28.0 81.0 0.0 -95.0 32.5 17.5 0.0 60.0 -32.5 17.5 z" fill="none" stroke="black" stroke-width="2" transform="translate(-50,25) translate(480,180)" /><text font-size="14" text-anchor="middle" transform="translate(480,180)" x="-10" y="125">S</text><line stroke="black" stroke-width="2" transform="translate(480,180)" x1="-5" x2="-5" y1="95" y2="110" /><text font-size="14" text-anchor="middle" transform="translate(480,180)" x="-35" y="30"> </text><line stroke="black" stroke-width="2" transform="translate(480,180)" x1="-20" x2="-30" y1="30" y2="30" /><text font-size="14" text-anchor="middle" transform="translate(480,180)" x="-35" y="90.0"> </text><line stroke="black" stroke-width="2" transform="translate(480,180)" x1="-20" x2="-30" y1="90.0" y2="90.0" /><text font-size="14" text-anchor="middle" transform="translate(480,180)" x="30" y="55"> </text><line stroke="black" stroke-width="2" transform="translate(480,180)" x1="10" x2="25" y1="55" y2="55" /><rect fill="none" height="200" stroke="black" stroke-width="2" width="200" x="80" y="80" /><text font-size="14" text-anchor="start" x="85" y="100">PC</text><line stroke="black" stroke-width="2" x1="70" x2="80" y1="100" y2="100" /><text font-size="14" text-anchor="end" x="275" y="100">I[4:0]</text><line stroke="black" stroke-width="2" x1="280" x2="290" y1="100" y2="100" /><text font-size="14" text-anchor="middle" x="180.0" y="180.0">Inst. Mem.</text><rect fill="none" height="60" stroke="black" stroke-width="2" width="100" x="520" y="80" /><text font-size="14" text-anchor="start" x="525" y="100">&gt;</text><line stroke="black" stroke-width="2" x1="510" x2="520" y1="100" y2="100" /><text font-size="14" text-anchor="start" x="525" y="130.0">IN</text><line stroke="black" stroke-width="2" x1="510" x2="520" y1="130.0" y2="130.0" /><text font-size="14" text-anchor="end" x="615" y="100">OUT</text><line stroke="black" stroke-width="2" x1="620" x2="630" y1="100" y2="100" /><text font-size="14" text-anchor="middle" x="570.0" y="110.0">reg</text><rect fill="none" height="140" stroke="black" stroke-width="2" width="140" x="280.0" y="380" /><text font-size="14" text-anchor="start" x="285.0" y="400">A[3:0]</text><line stroke="black" stroke-width="2" x1="270.0" x2="280.0" y1="400" y2="400" /><text font-size="14" text-anchor="start" x="285.0" y="455.0">B[3:0]</text><line stroke="black" stroke-width="2" x1="270.0" x2="280.0" y1="455.0" y2="455.0" /><text font-size="14" text-anchor="start" x="285.0" y="510.0">Cin</text><line stroke="black" stroke-width="2" x1="270.0" x2="280.0" y1="510.0" y2="510.0" /><text font-size="14" text-anchor="end" x="415.0" y="400">S[3:0]</text><line stroke="black" stroke-width="2" x1="420.0" x2="430.0" y1="400" y2="400" /><text font-size="14" text-anchor="end" x="415.0" y="510.0">Cout</text><line stroke="black" stroke-width="2" x1="420.0" x2="430.0" y1="510.0" y2="510.0" /><text font-size="14" text-anchor="middle" x="350.0" y="450.0">4-bit Adder</text><rect fill="none" height="30" stroke="black" stroke-width="2" width="80" x="330" y="80" /><text font-size="14" text-anchor="end" x="405" y="100" /><line stroke="black" stroke-width="2" x1="410" x2="420" y1="100" y2="100" /><text font-size="14" text-anchor="middle" x="370.0" y="95.0">CLK</text><rect fill="none" height="30" stroke="black" stroke-width="2" width="30" x="305" y="130" /><rect fill="none" height="30" stroke="black" stroke-width="2" width="30" x="335" y="130" /><rect fill="none" height="30" stroke="black" stroke-width="2" width="30" x="365" y="130" /><rect fill="none" height="30" stroke="black" stroke-width="2" width="30" x="395" y="130" /><rect fill="none" height="30" stroke="black" stroke-width="2" width="30" x="425" y="130" /><text font-size="14" text-anchor="middle" x="350.0" y="40">Complete the ADD/Zero Processor</text></svg>