<?xml version="1.0" encoding="utf-8" ?>
<svg baseProfile="full" height="440" version="1.1" width="600" xmlns="http://www.w3.org/2000/svg" xmlns:ev="http://www.w3.org/2001/xml-events" xmlns:xlink="http://www.w3.org/1999/xlink"><defs /><rect fill="none" height="180" stroke="black" stroke-width="2" width="140" x="230.0" y="180" /><text font-size="14" text-anchor="start" x="235.0" y="200">Cin</text><line stroke="black" stroke-width="2" x1="220.0" x2="230.0" y1="200" y2="200" /><text font-size="14" text-anchor="start" x="235.0" y="218.75">A[0]</text><line stroke="black" stroke-width="2" x1="220.0" x2="230.0" y1="218.75" y2="218.75" /><text font-size="14" text-anchor="start" x="235.0" y="237.5">A[1]</text><line stroke="black" stroke-width="2" x1="220.0" x2="230.0" y1="237.5" y2="237.5" /><text font-size="14" text-anchor="start" x="235.0" y="256.25">A[2]</text><line stroke="black" stroke-width="2" x1="220.0" x2="230.0" y1="256.25" y2="256.25" /><text font-size="14" text-anchor="start" x="235.0" y="275.0">A[3]</text><line stroke="black" stroke-width="2" x1="220.0" x2="230.0" y1="275.0" y2="275.0" /><text font-size="14" text-anchor="start" x="235.0" y="293.75">B[0]</text><line stroke="black" stroke-width="2" x1="220.0" x2="230.0" y1="293.75" y2="293.75" /><text font-size="14" text-anchor="start" x="235.0" y="312.5">B[1]</text><line stroke="black" stroke-width="2" x1="220.0" x2="230.0" y1="312.5" y2="312.5" /><text font-size="14" text-anchor="start" x="235.0" y="331.25">B[2]</text><line stroke="black" stroke-width="2" x1="220.0" x2="230.0" y1="331.25" y2="331.25" /><text font-size="14" text-anchor="start" x="235.0" y="350.0">B[3]</text><line stroke="black" stroke-width="2" x1="220.0" x2="230.0" y1="350.0" y2="350.0" /><text font-size="14" text-anchor="end" x="365.0" y="200">Cout</text><line stroke="black" stroke-width="2" x1="370.0" x2="380.0" y1="200" y2="200" /><text font-size="14" text-anchor="end" x="365.0" y="237.5">S[0]</text><line stroke="black" stroke-width="2" x1="370.0" x2="380.0" y1="237.5" y2="237.5" /><text font-size="14" text-anchor="end" x="365.0" y="275.0">S[1]</text><line stroke="black" stroke-width="2" x1="370.0" x2="380.0" y1="275.0" y2="275.0" /><text font-size="14" text-anchor="end" x="365.0" y="312.5">S[2]</text><line stroke="black" stroke-width="2" x1="370.0" x2="380.0" y1="312.5" y2="312.5" /><text font-size="14" text-anchor="end" x="365.0" y="350.0">S[3]</text><line stroke="black" stroke-width="2" x1="370.0" x2="380.0" y1="350.0" y2="350.0" /><text font-size="14" text-anchor="middle" x="300.0" y="270.0">4-bit Adder</text><rect fill="none" height="30" stroke="black" stroke-width="2" width="30" x="240" y="400" /><text font-size="14" text-anchor="start" x="245" y="420" /><line stroke="black" stroke-width="2" x1="230" x2="240" y1="420" y2="420" /><text font-size="14" text-anchor="middle" x="255.0" y="415.0">V</text><rect fill="none" height="30" stroke="black" stroke-width="2" width="30" x="290" y="400" /><text font-size="14" text-anchor="start" x="295" y="420" /><line stroke="black" stroke-width="2" x1="280" x2="290" y1="420" y2="420" /><text font-size="14" text-anchor="middle" x="305.0" y="415.0">Z</text><rect fill="none" height="30" stroke="black" stroke-width="2" width="30" x="340" y="400" /><text font-size="14" text-anchor="start" x="345" y="420" /><line stroke="black" stroke-width="2" x1="330" x2="340" y1="420" y2="420" /><text font-size="14" text-anchor="middle" x="355.0" y="415.0">N</text><rect fill="none" height="30" stroke="black" stroke-width="2" width="30" x="160" y="80" /><text font-size="14" text-anchor="end" x="185" y="100" /><line stroke="black" stroke-width="2" x1="190" x2="200" y1="100" y2="100" /><text font-size="14" text-anchor="middle" x="175.0" y="95.0">A[0]</text><rect fill="none" height="30" stroke="black" stroke-width="2" width="30" x="250" y="80" /><text font-size="14" text-anchor="end" x="275" y="100" /><line stroke="black" stroke-width="2" x1="280" x2="290" y1="100" y2="100" /><text font-size="14" text-anchor="middle" x="265.0" y="95.0">A[1]</text><rect fill="none" height="30" stroke="black" stroke-width="2" width="30" x="340" y="80" /><text font-size="14" text-anchor="end" x="365" y="100" /><line stroke="black" stroke-width="2" x1="370" x2="380" y1="100" y2="100" /><text font-size="14" text-anchor="middle" x="355.0" y="95.0">A[2]</text><rect fill="none" height="30" stroke="black" stroke-width="2" width="30" x="430" y="80" /><text font-size="14" text-anchor="end" x="455" y="100" /><line stroke="black" stroke-width="2" x1="460" x2="470" y1="100" y2="100" /><text font-size="14" text-anchor="middle" x="445.0" y="95.0">A[3]</text><rect fill="none" height="30" stroke="black" stroke-width="2" width="30" x="160" y="120" /><text font-size="14" text-anchor="end" x="185" y="140" /><line stroke="black" stroke-width="2" x1="190" x2="200" y1="140" y2="140" /><text font-size="14" text-anchor="middle" x="175.0" y="135.0">B[0]</text><rect fill="none" height="30" stroke="black" stroke-width="2" width="30" x="250" y="120" /><text font-size="14" text-anchor="end" x="275" y="140" /><line stroke="black" stroke-width="2" x1="280" x2="290" y1="140" y2="140" /><text font-size="14" text-anchor="middle" x="265.0" y="135.0">B[1]</text><rect fill="none" height="30" stroke="black" stroke-width="2" width="30" x="340" y="120" /><text font-size="14" text-anchor="end" x="365" y="140" /><line stroke="black" stroke-width="2" x1="370" x2="380" y1="140" y2="140" /><text font-size="14" text-anchor="middle" x="355.0" y="135.0">B[2]</text><rect fill="none" height="30" stroke="black" stroke-width="2" width="30" x="430" y="120" /><text font-size="14" text-anchor="end" x="455" y="140" /><line stroke="black" stroke-width="2" x1="460" x2="470" y1="140" y2="140" /><text font-size="14" text-anchor="middle" x="445.0" y="135.0">B[3]</text><rect fill="none" height="30" stroke="black" stroke-width="2" width="60" x="40" y="100.0" /><text font-size="14" text-anchor="end" x="95" y="120.0" /><line stroke="black" stroke-width="2" x1="100" x2="110" y1="120.0" y2="120.0" /><text font-size="14" text-anchor="middle" x="70.0" y="115.0">ALUFN</text><text font-size="14" text-anchor="middle" x="300.0" y="40">Complete the 4-Bit Arith Module by adding logic gates (AND,OR,NOT,XOR), muxes, and wires</text></svg>